<svg width="905" height="125" fill="none" xmlns="http://www.w3.org/2000/svg"><path d="M881.332 159.102c-2.216 3.755-9.01 5.095-12.486 2.463l-42.276-32.01c-3.617-2.738-.951-7.683 4.749-8.807l69.231-13.656c5.699-1.124 10.044 2.438 7.738 6.345l-26.956 45.665z" fill="url(#paint0_linear)"/><path d="M911.619 55.853c3.385-6.47 11.466-6.47 14.851 0l34.797 78.317c3.523 6.732-.647 15.352-7.425 15.352h-82.344c-6.779 0-10.948-8.62-7.426-15.352l47.547-78.317z" fill="url(#paint1_linear)"/><path d="M859.963 88.674c-5.574-.926-8.537 3.614-5.446 8.344l37.593 57.525c3.216 4.921 10.517 6.345 13.002 2.536l30.198-46.269c2.486-3.809-1.756-9.919-7.556-10.882l-67.791-11.254z" fill="url(#paint2_linear)"/><g filter="url(#filter0_f)"><path d="M848.531 37.553c-.57-.162-1.066.289-.911.83l1.881 6.575c.161.563.9.798 1.316.42l5.054-4.596c.416-.378.189-1.08-.405-1.249l-6.935-1.98z" fill="url(#paint3_linear)"/></g><g filter="url(#filter1_f)"><path d="M883.236 65.496c-.472.427-.342 1.276.24 1.56l7.074 3.46c.605.296 1.24-.237 1.131-.95l-1.328-8.654c-.109-.713-.878-1.056-1.37-.611l-5.747 5.195z" fill="url(#paint4_linear)"/></g><g filter="url(#filter2_f)"><path d="M834.835 74.278a.483.483 0 00.837-.022l2.204-3.99c.188-.342-.06-.766-.442-.756l-4.642.122c-.382.01-.604.447-.396.778l2.439 3.868z" fill="url(#paint5_linear)"/></g><g filter="url(#filter3_f)"><path d="M783.589 17.495a.484.484 0 00.838-.022l2.203-3.991c.189-.342-.059-.766-.442-.756l-4.642.123c-.382.01-.604.447-.395.777l2.438 3.869z" fill="url(#paint6_linear)"/></g><g filter="url(#filter4_f)"><path d="M887.376 9.417c-.203-.142-.471-.029-.492.209l-.256 2.888c-.022.247.237.442.462.346l2.729-1.155c.225-.095.242-.407.03-.555l-2.473-1.733z" fill="url(#paint7_linear)"/></g><path d="M61.319 151.724c2.362 4.003 9.605 5.432 13.311 2.626l45.07-34.125c3.855-2.919 1.013-8.191-5.063-9.389L40.831 96.278c-6.076-1.199-10.707 2.6-8.249 6.764l28.736 48.682z" fill="url(#paint8_linear)"/><path d="M11.602 15.117c-4.263-8.156-14.438-8.156-18.7 0l-43.815 98.717c-4.435 8.486.814 19.35 9.35 19.35H62.12c8.535 0 13.785-10.864 9.35-19.35L11.602 15.118z" fill="url(#paint9_linear)"/><path d="M69.817 74.175c6.907-1.147 10.58 4.48 6.749 10.34l-46.584 71.282c-3.985 6.098-13.031 7.862-16.112 3.142l-37.419-57.334c-3.08-4.72 2.177-12.29 9.363-13.483l84.003-13.947z" fill="url(#paint10_linear)"/><g filter="url(#filter5_f)"><path d="M152.885 91.172c-.602-.688-.243-1.685.66-1.831l10.981-1.78c.94-.152 1.757.724 1.455 1.56l-3.66 10.155c-.301.836-1.489.989-2.115.272l-7.321-8.376z" fill="url(#paint11_linear)"/></g><defs><linearGradient id="paint0_linear" x1="828.814" y1="146.596" x2="912.682" y2="130.053" gradientUnits="userSpaceOnUse"><stop stop-color="#E03803"/><stop offset="1" stop-color="#F6B100"/></linearGradient><linearGradient id="paint1_linear" x1="896.691" y1="149.402" x2="912.384" y2="75.803" gradientUnits="userSpaceOnUse"><stop stop-color="#EA5400"/><stop offset="1" stop-color="#F67C00"/></linearGradient><linearGradient id="paint2_linear" x1="868.81" y1="140.36" x2="884.287" y2="77.451" gradientUnits="userSpaceOnUse"><stop stop-color="#EA5400"/><stop offset="1" stop-color="#FFDB5D"/></linearGradient><linearGradient id="paint3_linear" x1="847.513" y1="43.176" x2="854.964" y2="38.17" gradientUnits="userSpaceOnUse"><stop stop-color="#EA5400"/><stop offset="1" stop-color="#FFDB5D"/></linearGradient><linearGradient id="paint4_linear" x1="887.793" y1="71.027" x2="889.071" y2="59.878" gradientUnits="userSpaceOnUse"><stop stop-color="#EA5400"/><stop offset="1" stop-color="#FFDB5D"/></linearGradient><linearGradient id="paint5_linear" x1="836.222" y1="72.079" x2="832.296" y2="72.509" gradientUnits="userSpaceOnUse"><stop stop-color="#EA5400"/><stop offset="1" stop-color="#FFDB5D"/></linearGradient><linearGradient id="paint6_linear" x1="784.976" y1="15.295" x2="781.05" y2="15.726" gradientUnits="userSpaceOnUse"><stop stop-color="#EA5400"/><stop offset="1" stop-color="#FFDB5D"/></linearGradient><linearGradient id="paint7_linear" x1="886.105" y1="11.531" x2="888.218" y2="9.019" gradientUnits="userSpaceOnUse"><stop stop-color="#EA5400"/><stop offset="1" stop-color="#FFDB5D"/></linearGradient><linearGradient id="paint8_linear" x1="117.308" y1="138.391" x2="27.897" y2="120.756" gradientUnits="userSpaceOnUse"><stop stop-color="#E03803"/><stop offset="1" stop-color="#F6B100"/></linearGradient><linearGradient id="paint9_linear" x1="30.398" y1="133.033" x2="10.598" y2="40.272" gradientUnits="userSpaceOnUse"><stop stop-color="#EA5400"/><stop offset="1" stop-color="#F67C00"/></linearGradient><linearGradient id="paint10_linear" x1="58.855" y1="138.223" x2="39.676" y2="60.268" gradientUnits="userSpaceOnUse"><stop stop-color="#EA5400"/><stop offset="1" stop-color="#FFDB5D"/></linearGradient><linearGradient id="paint11_linear" x1="160.618" y1="85.975" x2="152.145" y2="94.84" gradientUnits="userSpaceOnUse"><stop stop-color="#EA5400"/><stop offset="1" stop-color="#FFDB5D"/></linearGradient><filter id="filter0_f" x="844.591" y="34.52" width="14.492" height="14.043" filterUnits="userSpaceOnUse" color-interpolation-filters="sRGB"><feFlood flood-opacity="0" result="BackgroundImageFix"/><feBlend in="SourceGraphic" in2="BackgroundImageFix" result="shape"/><feGaussianBlur stdDeviation="1.5" result="effect1_foregroundBlur"/></filter><filter id="filter1_f" x="879.948" y="57.102" width="14.745" height="16.498" filterUnits="userSpaceOnUse" color-interpolation-filters="sRGB"><feFlood flood-opacity="0" result="BackgroundImageFix"/><feBlend in="SourceGraphic" in2="BackgroundImageFix" result="shape"/><feGaussianBlur stdDeviation="1.5" result="effect1_foregroundBlur"/></filter><filter id="filter2_f" x="829.316" y="66.51" width="11.624" height="11" filterUnits="userSpaceOnUse" color-interpolation-filters="sRGB"><feFlood flood-opacity="0" result="BackgroundImageFix"/><feBlend in="SourceGraphic" in2="BackgroundImageFix" result="shape"/><feGaussianBlur stdDeviation="1.5" result="effect1_foregroundBlur"/></filter><filter id="filter3_f" x="778.07" y="9.726" width="11.624" height="11" filterUnits="userSpaceOnUse" color-interpolation-filters="sRGB"><feFlood flood-opacity="0" result="BackgroundImageFix"/><feBlend in="SourceGraphic" in2="BackgroundImageFix" result="shape"/><feGaussianBlur stdDeviation="1.5" result="effect1_foregroundBlur"/></filter><filter id="filter4_f" x="883.626" y="6.354" width="9.372" height="9.53" filterUnits="userSpaceOnUse" color-interpolation-filters="sRGB"><feFlood flood-opacity="0" result="BackgroundImageFix"/><feBlend in="SourceGraphic" in2="BackgroundImageFix" result="shape"/><feGaussianBlur stdDeviation="1.5" result="effect1_foregroundBlur"/></filter><filter id="filter5_f" x="150.588" y="85.544" width="17.457" height="16.461" filterUnits="userSpaceOnUse" color-interpolation-filters="sRGB"><feFlood flood-opacity="0" result="BackgroundImageFix"/><feBlend in="SourceGraphic" in2="BackgroundImageFix" result="shape"/><feGaussianBlur stdDeviation="1" result="effect1_foregroundBlur"/></filter></defs></svg>