<svg width="100" height="100" fill="none" xmlns="http://www.w3.org/2000/svg"><g clip-path="url(#clip0)"><path d="M100 50c0 27.613-22.387 50-50 50S0 77.613 0 50a49.774 49.774 0 015.672-23.15c6.565-2.938 26.815-10.196 35.172-14.94 3.57-2.03-8.08-9.049-4.03-10.152A50.013 50.013 0 0150 0c4.565 0 8.984.611 13.185 1.758a49.677 49.677 0 0111.471 4.734c2.36 1.34 4.6 2.87 6.701 4.56C92.727 20.22 100 34.26 100 50z" fill="#FF8A61"/><path d="M49.657 46.593a6.078 6.078 0 01-7.545-4.117l-5.696-19.38 11.661-3.427 5.697 19.38a6.078 6.078 0 01-4.117 7.544z" fill="#EDB27E"/><path d="M63.944 59.76H50.72l-4.643-16.193c-1.62-5.646 2.62-11.27 8.492-11.27h5.525c5.873 0 10.111 5.624 8.493 11.27L63.944 59.76z" fill="#CE6A52"/><path d="M53.234 43.567l1.691 16.193h-4.206l-4.642-16.193c-1.62-5.646 2.619-11.27 8.491-11.27h1.758c-2.139 0-3.682 5.624-3.092 11.27z" fill="#C1593D"/><path d="M66.473 43.794a6.078 6.078 0 01-7.891-3.406l-8.593-21.64 11.297-4.486 8.593 21.64a6.077 6.077 0 01-3.406 7.892z" fill="#FDD1A2"/><path d="M66.474 43.793a6.077 6.077 0 01-2.456.427 6.08 6.08 0 001.327-6.516L56.752 16.06l4.534-1.8 8.593 21.642a6.074 6.074 0 01-3.405 7.89z" fill="#EDB27E"/><path d="M79.366 36.97a6.078 6.078 0 01-8.595 0L54.307 20.506l8.595-8.595 16.464 16.464a6.077 6.077 0 010 8.595z" fill="#FDD1A2"/><path d="M79.366 36.969a6.078 6.078 0 01-2.085 1.365 6.08 6.08 0 00-1.364-6.509L59.45 15.36l3.45-3.45 16.465 16.466a6.075 6.075 0 010 8.593z" fill="#EDB27E"/><path d="M85.725 23.086a6.077 6.077 0 01-7.565 4.08l-22.306-6.678-2.636-8.236 6.121-3.408 22.307 6.677a6.077 6.077 0 014.08 7.565z" fill="#FDD1A2"/><path d="M85.724 23.084a6.078 6.078 0 01-1.187 2.192 6.08 6.08 0 00-4.29-5.082L57.94 13.517l1.399-4.674 22.308 6.678a6.074 6.074 0 014.078 7.563z" fill="#EDB27E"/><path d="M82.277 7.836a6.037 6.037 0 01-.92 3.217 6.068 6.068 0 01-5.158 2.861H54.826a24.997 24.997 0 013.59 12.936h-7.879a9.266 9.266 0 01-1.555 2.052c-3.677 3.678-9.634 3.678-13.308 0a9.444 9.444 0 01-1.553-2.052H5.671C12.046 14.672 23.288 5.445 36.816 1.758H76.2a6.077 6.077 0 016.078 6.078z" fill="#FDD1A2"/><path d="M82.277 7.836c0 .842-.171 1.639-.478 2.367a6.079 6.079 0 00-5.6-3.71H25.348a49.565 49.565 0 0111.467-4.735h39.384a6.077 6.077 0 016.078 6.078z" fill="#EDB27E"/><path d="M50.347 55.34h14.84L80.61 80.383C85.93 89.02 79.528 100 69.17 100H46.363c-10.358 0-16.76-10.979-11.44-19.617L50.347 55.34z" fill="#CE6A52"/><path d="M57.332 48.027c-.87 0-1.574.705-1.574 1.574v6.44h3.147V49.6c0-.87-.704-1.574-1.573-1.574zm6.683.999a1.572 1.572 0 00-2.02.931L59.765 56l2.952 1.09 2.229-6.043a1.573 1.573 0 00-.932-2.02zM57.332 64.29a1.573 1.573 0 01-1.574-1.573v-6.44h3.147v6.44c0 .87-.704 1.574-1.573 1.574z" fill="#C1593D"/><path d="M64.015 63.292a1.572 1.572 0 01-2.02-.931l-2.229-6.042 2.952-1.09 2.229 6.043a1.573 1.573 0 01-.932 2.02zM52.71 100h-8.3c-11.855 0-19.182-10.98-13.093-19.62l17.65-25.042h5.402L47.944 80.38c-2.216 8.64.45 19.618 4.767 19.618z" fill="#C1593D"/><path d="M44.595 74.604c.944 0 1.763.1 2.454.3.705.183 1.25.544 1.636 1.081.386.537.58 1.305.58 2.302 0 .614-.067 1.182-.2 1.703-.12.507-.346 1.036-.679 1.589-.32.552-.785 1.205-1.397 1.957l-3.611 4.304c.332-.061.665-.1.997-.115.346-.03.692-.046 1.038-.046h4.25v3.084h-9.857v-1.887c0-.276.033-.53.1-.76.066-.23.18-.452.339-.667l3.432-4.236c.812-.967 1.43-1.826 1.856-2.578.425-.752.632-1.412.618-1.98-.013-.49-.18-.798-.498-.92-.306-.123-.772-.184-1.397-.184a35.39 35.39 0 00-2.594.091 24.76 24.76 0 00-1.597.116l-.14-2.602c.985-.23 1.83-.376 2.535-.437.718-.077 1.43-.115 2.135-.115z" fill="#FFE04A"/><mask id="a" maskUnits="userSpaceOnUse" x="29" y="55" width="25" height="46"><path d="M52.309 100H44.18c-11.608 0-18.784-11.048-12.822-19.743l17.285-25.2h5.29l-6.292 25.2C45.471 88.952 48.083 100 52.31 100z" fill="#C1593D"/></mask><g mask="url(#a)"><path d="M44.595 74.604c.944 0 1.763.1 2.454.3.705.183 1.25.544 1.636 1.081.386.537.58 1.305.58 2.302 0 .614-.067 1.182-.2 1.703-.12.507-.346 1.036-.679 1.589-.32.552-.785 1.205-1.397 1.957l-3.611 4.304c.332-.061.665-.1.997-.115.346-.03.692-.046 1.038-.046h4.25v3.084h-9.857v-1.887c0-.276.033-.53.1-.76.066-.23.18-.452.339-.667l3.432-4.236c.812-.967 1.43-1.826 1.856-2.578.425-.752.632-1.412.618-1.98-.013-.49-.18-.798-.498-.92-.306-.123-.772-.184-1.397-.184a35.39 35.39 0 00-2.594.091 24.76 24.76 0 00-1.597.116l-.14-2.602c.985-.23 1.83-.376 2.535-.437.718-.077 1.43-.115 2.135-.115z" fill="#FFBF4D"/></g><path d="M65.402 58.617h-16.14a2.146 2.146 0 110-4.293h16.14a2.146 2.146 0 010 4.293z" fill="#FFE04A"/><path d="M56.199 58.617H49.26a2.146 2.146 0 110-4.293h6.94a2.146 2.146 0 100 4.293z" fill="#FFBF4D"/><path d="M68.11 90.29c-.125 0-.252-.02-.374-.064-.492-.177-.724-.664-.517-1.086l5.833-11.933c.206-.422.773-.621 1.265-.444.492.178.724.664.517 1.087l-5.833 11.932c-.155.318-.514.509-.892.509zM68 76.87a2.256 2.256 0 00-.858-.172c-1.605 0-2.912 1.743-2.912 3.884 0 1.063.322 2.027.842 2.729.412.556.95.948 1.552 1.093.168.04.342.062.519.062 1.606 0 2.913-1.743 2.913-3.884 0-1.742-.866-3.22-2.056-3.711zm-.858 5.7a.884.884 0 01-.18-.02c-.645-.13-1.143-.964-1.143-1.968 0-.13.01-.26.025-.383.067-.512.264-.954.538-1.242.216-.229.478-.364.76-.364.183 0 .357.057.516.157.474.302.808 1.01.808 1.832 0 1.096-.594 1.988-1.323 1.988zm6.798 8.692c-1.607 0-2.913-1.524-2.913-3.398s1.306-3.398 2.912-3.398c1.606 0 2.913 1.524 2.913 3.398s-1.307 3.398-2.913 3.398zm0-5.138c-.73 0-1.325.78-1.325 1.74s.594 1.74 1.324 1.74c.73 0 1.324-.78 1.324-1.74s-.594-1.74-1.324-1.74zm-17.132-11.52c1.317 0 2.361.269 3.133.806.785.537 1.343 1.412 1.676 2.624.346 1.197.519 2.808.519 4.834s-.173 3.645-.519 4.857c-.332 1.197-.891 2.064-1.676 2.601-.772.522-1.816.783-3.133.783s-2.368-.261-3.153-.783c-.771-.537-1.323-1.404-1.656-2.601-.333-1.212-.499-2.831-.499-4.857 0-2.026.166-3.637.5-4.834.332-1.213.884-2.087 1.655-2.624.785-.537 1.836-.806 3.153-.806zm-.02 2.74c-.585 0-1.044.16-1.377.483-.332.307-.565.86-.698 1.657-.133.783-.2 1.91-.2 3.384 0 1.473.067 2.609.2 3.407.133.782.366 1.327.698 1.634.333.307.792.46 1.377.46.599 0 1.064-.153 1.397-.46.346-.307.585-.852.718-1.634.147-.798.22-1.934.22-3.407s-.073-2.601-.22-3.384c-.133-.798-.372-1.35-.718-1.657-.333-.323-.798-.484-1.397-.484z" fill="#FFE04A"/></g><defs><clipPath id="clip0"><path fill="#fff" d="M0 0h100v100H0z"/></clipPath></defs></svg>