<svg width="100" height="100" fill="none" xmlns="http://www.w3.org/2000/svg"><path d="M100 50c0 6.353-1.186 12.43-3.348 18.022-9.863 3.624-10.476 2.751-19.049 8.435-2.515 1.67-5.189 18.354-7.997 19.55a49.25 49.25 0 01-6.083 2.141c-4.3 1.208-8.838-8.804-13.523-8.804-1.87 0-3.713.424-5.527.22-2.739-.298-5.41 9.311-7.996 8.584a49.25 49.25 0 01-6.082-2.14c-7.456-3.18-9.993-16.561-15.064-22.74-3.347-4.073-10.05-.245-11.983-5.246a49.863 49.863 0 01-3.319-19.74 49.868 49.868 0 011.346-9.97C6.637 16.335 26.412 0 50 0a49.771 49.771 0 0122.44 5.309 50.159 50.159 0 0116.628 13.486A49.795 49.795 0 01100 50z" fill="#5BD89D"/><path d="M90.958 5.23L89.07 18.795l-.4 2.87c-.488 3.5-4.582 5.159-7.371 2.987l-2.81-2.191-16.305 19.763a5.074 5.074 0 01-6.192 1.303L28.386 29.644 12.329 50.597a5.074 5.074 0 01-6.672 1.243l-5.22-3.192c-.137-.12-.272-.244-.407-.365a49.867 49.867 0 011.346-9.97l5.883 3.597 15.87-20.711a5.072 5.072 0 016.308-1.445L57.13 33.68l14.008-16.947-2.926-2.281c-2.787-2.172-2.178-6.549 1.098-7.875l3.13-1.27L84.686.344c3.275-1.329 6.76 1.386 6.273 4.886z" fill="#4AC688"/><path d="M30.395 66.949v29.058A50.092 50.092 0 0113.268 83.92c-.399-.43-.79-2.349-1.172-2.793-.565-.656-1.113.154-1.643-.53A49.846 49.846 0 013.348 68.02v-1.072a6.136 6.136 0 016.136-6.137h14.772a6.138 6.138 0 016.139 6.137z" fill="#A185D6"/><path d="M63.523 55.578v42.57A49.983 49.983 0 0150 100c-4.685 0-9.223-.644-13.523-1.852v-42.57a6.138 6.138 0 016.136-6.139h14.774a6.138 6.138 0 016.136 6.14z" fill="#FFE04A"/><path d="M96.652 39.115v28.907C91.79 80.606 81.978 90.73 69.606 96.008V39.115a6.138 6.138 0 016.138-6.138h14.772a6.136 6.136 0 016.136 6.138z" fill="#FF8A61"/><path d="M17.48 60.812a6.137 6.137 0 00-6.136 6.137V81.71a49.918 49.918 0 01-7.996-13.689v-1.072a6.136 6.136 0 016.136-6.137h7.996z" fill="#8269BC"/><path d="M50.611 49.44a6.139 6.139 0 00-6.138 6.14v44.115a49.33 49.33 0 01-7.996-1.547V55.58a6.138 6.138 0 016.136-6.14h7.998z" fill="#FFBF4D"/><path d="M83.74 32.977a6.138 6.138 0 00-6.136 6.138v52.578a49.698 49.698 0 01-7.998 4.315V39.115a6.138 6.138 0 016.138-6.138h7.996z" fill="#F4744D"/><path d="M45.072 73.652c-.81 0-1.465-.656-1.465-1.465V59.865h-1.482a1.465 1.465 0 110-2.93h2.947c.809 0 1.464.656 1.464 1.465v13.787c0 .81-.655 1.465-1.464 1.465zm8.587.307a5.682 5.682 0 01-5.682-5.682 1.465 1.465 0 112.93 0 2.757 2.757 0 002.81 2.752 2.758 2.758 0 002.69-2.603 2.732 2.732 0 00-.753-2.043 2.727 2.727 0 00-1.996-.858c-1.09 0-1.535.164-2.09.414a2.764 2.764 0 00-.113.053 1.47 1.47 0 01-2.112-1.543l1.026-6.194a1.465 1.465 0 011.445-1.226h5.18a1.465 1.465 0 110 2.93h-3.938l-.445 2.685a10.36 10.36 0 011.047-.048c1.55 0 3.052.645 4.12 1.77a5.635 5.635 0 011.554 4.212c-.154 2.957-2.595 5.32-5.558 5.38h-.115z" fill="#434C54"/><path d="M13.383 69.563V83.35c0 .201-.041.395-.115.57a49.633 49.633 0 01-2.815-3.324v-9.568H8.971a1.464 1.464 0 110-2.93h2.947c.809 0 1.465.656 1.465 1.465zm7.4-1.746a5.458 5.458 0 00-5.452 5.452v6.376a5.458 5.458 0 005.452 5.452 5.458 5.458 0 005.452-5.452V73.27a5.458 5.458 0 00-5.452-5.452zm2.522 11.828a2.525 2.525 0 01-2.522 2.522 2.525 2.525 0 01-2.522-2.522V73.27a2.525 2.525 0 012.522-2.522 2.525 2.525 0 012.522 2.522v6.376zM76.51 55.694c-2.674 0-2.873-.067-3.068-.132a1.529 1.529 0 01-.995-1.007c-.252-.818.108-1.289.976-2.425.7-.917 2.004-2.625 4.19-5.747.637-.911 1.048-1.724 1.222-2.418l.045-.35a2.066 2.066 0 00-2.061-1.982c-.984 0-1.836.7-2.025 1.662a1.464 1.464 0 11-2.874-.565 5.001 5.001 0 014.899-4.026 4.998 4.998 0 014.992 4.992c0 .062-.004.124-.012.186l-.068.533a1.495 1.495 0 01-.026.145c-.25 1.076-.819 2.254-1.693 3.503a173.413 173.413 0 01-3.391 4.698 391.84 391.84 0 004.291-.032 1.465 1.465 0 01.037 2.93c-1.96.024-3.39.035-4.439.035zm-2.374-2.966zm14.78 2.962a5.458 5.458 0 01-5.452-5.451v-6.376a5.458 5.458 0 015.452-5.452 5.458 5.458 0 015.451 5.452v6.376a5.458 5.458 0 01-5.451 5.452zm0-14.35a2.525 2.525 0 00-2.522 2.523v6.376a2.525 2.525 0 002.522 2.522 2.525 2.525 0 002.522-2.522v-6.376a2.525 2.525 0 00-2.522-2.523z" fill="#FFE04A"/><path d="M47.479 94.336a1.465 1.465 0 01-1.35-2.032l5.21-12.415a1.465 1.465 0 012.701 1.134l-5.21 12.415c-.235.56-.779.898-1.351.898zm-1.973-15.922a3.37 3.37 0 00-1.033.16c-1.578.492-2.735 2.09-2.735 3.978 0 1.89 1.157 3.489 2.735 3.981.328.105.675.16 1.033.16 2.076 0 3.766-1.857 3.766-4.14 0-2.284-1.69-4.14-3.766-4.14zm0 5.35c-.397 0-.838-.499-.838-1.212 0-.712.441-1.209.838-1.209.394 0 .836.497.836 1.21 0 .712-.442 1.21-.836 1.21z" fill="#FF8A61"/><path d="M44.473 78.574v7.959c-1.578-.493-2.735-2.092-2.735-3.98 0-1.89 1.157-3.487 2.735-3.98z" fill="#F4744D"/><path d="M54.495 95.18c-2.077 0-3.767-1.856-3.767-4.14 0-2.282 1.69-4.14 3.767-4.14s3.767 1.858 3.767 4.14c0 2.284-1.69 4.14-3.767 4.14zm0-5.35c-.396 0-.837.498-.837 1.211 0 .713.441 1.21.837 1.21.396 0 .837-.497.837-1.21s-.441-1.21-.837-1.21z" fill="#FF8A61"/><path d="M80.608 79.185a1.465 1.465 0 01-1.35-2.032l5.21-12.415a1.465 1.465 0 012.7 1.134L81.96 78.286c-.235.561-.78.899-1.351.899zm-1.973-15.923a3.35 3.35 0 00-1.032.16c-1.578.492-2.736 2.09-2.736 3.98 0 1.889 1.158 3.487 2.736 3.979.329.105.674.16 1.032.16 2.076 0 3.765-1.857 3.765-4.139 0-2.283-1.69-4.14-3.765-4.14zm0 5.35c-.397 0-.838-.497-.838-1.21s.441-1.21.838-1.21c.394 0 .836.498.836 1.21 0 .713-.442 1.21-.836 1.21z" fill="#434C54"/><path d="M77.603 63.422v7.959c-1.578-.493-2.736-2.09-2.736-3.979 0-1.89 1.158-3.488 2.736-3.98z" fill="#413D44"/><path d="M87.624 80.03c-2.077 0-3.767-1.857-3.767-4.14 0-2.283 1.69-4.14 3.767-4.14s3.767 1.857 3.767 4.14c0 2.283-1.69 4.14-3.767 4.14zm0-5.35c-.396 0-.837.496-.837 1.21 0 .713.44 1.21.837 1.21.396 0 .837-.497.837-1.21s-.441-1.21-.837-1.21z" fill="#434C54"/></svg>