<svg width="30" height="33" viewBox="0 0 30 33" fill="none" xmlns="http://www.w3.org/2000/svg">
<path d="M3.57143 3.40186H26.7857V23.4388L14.8649 31.9792L3.57143 23.4388V3.40186Z" fill="white"/>
<path fill-rule="evenodd" clip-rule="evenodd" d="M26.0714 4.08227H4.28571V23.1102L14.8767 31.1193L26.0714 23.0992V4.08227ZM26.7857 23.4388L14.8649 31.9792L3.57143 23.4388V3.40186H26.7857V23.4388Z" fill="#111111"/>
<path d="M7.85713 3.40186H22.5V21.7417L14.9807 27.2163L7.85713 21.7417V3.40186Z" fill="#EA5400"/>
<path fill-rule="evenodd" clip-rule="evenodd" d="M22.1429 3.74206H8.21427V21.5791L14.9866 26.7837L22.1429 21.5735V3.74206ZM22.5 21.7417L14.9807 27.2163L7.85713 21.7417V3.40186H22.5V21.7417Z" fill="#111111"/>
<path d="M0 1.02062C0 0.456947 0.479695 0 1.07143 0H28.9286C29.5203 0 30 0.456947 30 1.02062V3.06186C30 3.62553 29.5203 4.08247 28.9286 4.08247H1.07143C0.479694 4.08247 0 3.62553 0 3.06186V1.02062Z" fill="#111111"/>
<path d="M14.2857 6.8042H15.7967V14.2887H14.2857V6.8042Z" fill="white"/>
<path fill-rule="evenodd" clip-rule="evenodd" d="M7.89242 17.0789C7.95127 17.0035 8.06313 16.9878 8.14227 17.0439L15.0044 21.9045L22.2207 17.21C22.3022 17.157 22.4133 17.177 22.4689 17.2545C22.5245 17.3321 22.5036 17.438 22.4221 17.4909L15.1007 22.2538C15.0378 22.2947 14.9546 22.2932 14.8934 22.2499L7.92916 17.3169C7.85002 17.2608 7.83357 17.1543 7.89242 17.0789Z" fill="#111111"/>
</svg>
