<svg width="30" height="33" viewBox="0 0 30 33" fill="none" xmlns="http://www.w3.org/2000/svg">
<path d="M3.57143 3.4021H26.7857V23.4391L14.8649 31.9794L3.57143 23.4391V3.4021Z" fill="white"/>
<path fill-rule="evenodd" clip-rule="evenodd" d="M26.0714 4.08251H4.28571V23.1105L14.8767 31.1196L26.0714 23.0994V4.08251ZM26.7857 23.4391L14.8649 31.9794L3.57143 23.4391V3.4021H26.7857V23.4391Z" fill="#111111"/>
<path d="M7.85715 3.4021H22.5V21.7419L14.9807 27.2165L7.85715 21.7419V3.4021Z" fill="#EA5400"/>
<path fill-rule="evenodd" clip-rule="evenodd" d="M22.1429 3.74231H8.21429V21.5793L14.9867 26.784L22.1429 21.5738V3.74231ZM22.5 21.7419L14.9807 27.2165L7.85715 21.7419V3.4021H22.5V21.7419Z" fill="#111111"/>
<path fill-rule="evenodd" clip-rule="evenodd" d="M7.89242 17.0789C7.95127 17.0035 8.06313 16.9878 8.14227 17.0439L15.0044 21.9045L22.2207 17.21C22.3022 17.157 22.4133 17.177 22.4689 17.2545C22.5245 17.3321 22.5036 17.438 22.4221 17.4909L15.1007 22.2538C15.0378 22.2947 14.9546 22.2932 14.8934 22.2499L7.92916 17.3169C7.85002 17.2608 7.83357 17.1543 7.89242 17.0789Z" fill="#111111"/>
<path fill-rule="evenodd" clip-rule="evenodd" d="M7.89242 18.2695C7.95127 18.1942 8.06313 18.1785 8.14227 18.2345L15.0044 23.0952L22.2207 18.4007C22.3022 18.3477 22.4133 18.3676 22.4689 18.4452C22.5245 18.5228 22.5036 18.6286 22.4221 18.6816L15.1007 23.4445C15.0378 23.4854 14.9546 23.4838 14.8934 23.4405L7.92916 18.5075C7.85002 18.4515 7.83357 18.3449 7.89242 18.2695Z" fill="#111111"/>
<path d="M0 1.02062C0 0.456947 0.479695 0 1.07143 0H28.9286C29.5203 0 30 0.456947 30 1.02062V3.06186C30 3.62553 29.5203 4.08247 28.9286 4.08247H1.07143C0.479694 4.08247 0 3.62553 0 3.06186V1.02062Z" fill="#111111"/>
<path d="M13.2143 6.8042H14.7253V14.2887H13.2143V6.8042Z" fill="white"/>
<path d="M15.9341 6.8042H17.445V14.2887H15.9341V6.8042Z" fill="white"/>
</svg>
