<svg width="30" height="33" viewBox="0 0 30 33" fill="none" xmlns="http://www.w3.org/2000/svg">
<path d="M3.57143 3.4021H26.7857V23.4391L14.8649 31.9794L3.57143 23.4391V3.4021Z" fill="white"/>
<path fill-rule="evenodd" clip-rule="evenodd" d="M26.0714 4.08251H4.28571V23.1105L14.8767 31.1196L26.0714 23.0994V4.08251ZM26.7857 23.4391L14.8649 31.9794L3.57143 23.4391V3.4021H26.7857V23.4391Z" fill="#111111"/>
<path d="M7.85713 3.4021H22.5V21.7419L14.9807 27.2165L7.85713 21.7419V3.4021Z" fill="#EA5400"/>
<path fill-rule="evenodd" clip-rule="evenodd" d="M22.1428 3.74231H8.21427V21.5793L14.9866 26.784L22.1428 21.5738V3.74231ZM22.5 21.7419L14.9807 27.2165L7.85713 21.7419V3.4021H22.5V21.7419Z" fill="#111111"/>
<path fill-rule="evenodd" clip-rule="evenodd" d="M7.8924 18.0994C7.95125 18.024 8.06311 18.0083 8.14225 18.0644L15.0044 22.925L22.2207 18.2305C22.3021 18.1775 22.4133 18.1975 22.4689 18.275C22.5245 18.3526 22.5036 18.4585 22.4221 18.5114L15.1007 23.2743C15.0378 23.3153 14.9546 23.3137 14.8934 23.2704L7.92915 18.3374C7.85 18.2813 7.83355 18.1748 7.8924 18.0994Z" fill="#111111"/>
<path fill-rule="evenodd" clip-rule="evenodd" d="M7.8924 16.9087C7.95125 16.8333 8.06311 16.8176 8.14225 16.8737L15.0044 21.7343L22.2207 17.0398C22.3021 16.9869 22.4133 17.0068 22.4689 17.0844C22.5245 17.162 22.5036 17.2678 22.4221 17.3208L15.1007 22.0837C15.0378 22.1246 14.9546 22.123 14.8934 22.0797L7.92915 17.1467C7.85 17.0906 7.83355 16.9841 7.8924 16.9087Z" fill="#111111"/>
<path fill-rule="evenodd" clip-rule="evenodd" d="M7.8924 19.29C7.95125 19.2147 8.06311 19.199 8.14225 19.255L15.0044 24.1157L22.2207 19.4212C22.3021 19.3682 22.4133 19.3881 22.4689 19.4657C22.5245 19.5433 22.5036 19.6491 22.4221 19.7021L15.1007 24.465C15.0378 24.5059 14.9546 24.5043 14.8934 24.461L7.92915 19.5281C7.85 19.472 7.83355 19.3654 7.8924 19.29Z" fill="#111111"/>
<path fill-rule="evenodd" clip-rule="evenodd" d="M7.8924 20.3108C7.95125 20.2354 8.06311 20.2197 8.14225 20.2758L15.0044 25.1364L22.2207 20.4419C22.3021 20.389 22.4133 20.4089 22.4689 20.4865C22.5245 20.5641 22.5036 20.6699 22.4221 20.7229L15.1007 25.4858C15.0378 25.5267 14.9546 25.5251 14.8934 25.4818L7.92915 20.5488C7.85 20.4927 7.83355 20.3862 7.8924 20.3108Z" fill="#111111"/>
<path d="M10.3571 6.8042H11.8681V14.2887H10.3571V6.8042Z" fill="white"/>
<path d="M19.0892 6.8042C19.322 6.8042 19.3932 6.92016 19.3026 7.15207L16.9842 13.9936C16.9389 14.113 16.8872 14.1939 16.829 14.236C16.7772 14.2712 16.6932 14.2887 16.5768 14.2887H16.0626C15.9462 14.2887 15.8557 14.2712 15.791 14.236C15.7328 14.1939 15.6875 14.1166 15.6552 14.0041L13.3271 7.15207C13.2495 6.92016 13.3206 6.8042 13.5405 6.8042H14.0352C14.2357 6.8042 14.3747 6.82528 14.4523 6.86745C14.5364 6.90962 14.5978 6.99395 14.6366 7.12045L16.0529 11.6112C16.0788 11.7025 16.1047 11.8044 16.1305 11.9169C16.1629 12.0223 16.1887 12.1207 16.2081 12.212C16.2275 12.3034 16.2437 12.3877 16.2566 12.465C16.2696 12.5423 16.2793 12.6056 16.2857 12.6548C16.2987 12.697 16.3051 12.7216 16.3051 12.7286H16.3633C16.3698 12.7216 16.3827 12.6618 16.4021 12.5494C16.4215 12.4369 16.4507 12.2893 16.4895 12.1066C16.5283 11.9239 16.5703 11.7623 16.6156 11.6217L18.0221 7.12045C18.0609 6.99395 18.1192 6.90962 18.1968 6.86745C18.2808 6.82528 18.4231 6.8042 18.6236 6.8042H19.0892Z" fill="white"/>
<path d="M0 1.02062C0 0.456947 0.479695 0 1.07143 0H28.9286C29.5203 0 30 0.456947 30 1.02062V3.06186C30 3.62553 29.5203 4.08247 28.9286 4.08247H1.07143C0.479694 4.08247 0 3.62553 0 3.06186V1.02062Z" fill="#111111"/>
</svg>
