<svg width="30" height="33" viewBox="0 0 30 33" fill="none" xmlns="http://www.w3.org/2000/svg">
<path d="M3.57143 3.4021H26.7857V23.4391L14.8649 31.9794L3.57143 23.4391V3.4021Z" fill="white"/>
<path fill-rule="evenodd" clip-rule="evenodd" d="M26.0714 4.08251H4.28571V23.1105L14.8767 31.1196L26.0714 23.0994V4.08251ZM26.7857 23.4391L14.8649 31.9794L3.57143 23.4391V3.4021H26.7857V23.4391Z" fill="#111111"/>
<path d="M7.85713 3.4021H22.5V21.7419L14.9807 27.2165L7.85713 21.7419V3.4021Z" fill="#EA5400"/>
<path fill-rule="evenodd" clip-rule="evenodd" d="M7.89242 18.0994C7.95127 18.024 8.06313 18.0083 8.14227 18.0644L15.0044 22.925L22.2207 18.2305C22.3022 18.1775 22.4133 18.1975 22.4689 18.275C22.5245 18.3526 22.5036 18.4585 22.4221 18.5114L15.1007 23.2743C15.0378 23.3153 14.9546 23.3137 14.8934 23.2704L7.92916 18.3374C7.85002 18.2813 7.83357 18.1748 7.89242 18.0994Z" fill="#111111"/>
<path fill-rule="evenodd" clip-rule="evenodd" d="M7.89242 16.9087C7.95127 16.8333 8.06313 16.8176 8.14227 16.8737L15.0044 21.7343L22.2207 17.0398C22.3022 16.9869 22.4133 17.0068 22.4689 17.0844C22.5245 17.162 22.5036 17.2678 22.4221 17.3208L15.1007 22.0837C15.0378 22.1246 14.9546 22.123 14.8934 22.0797L7.92916 17.1467C7.85002 17.0906 7.83357 16.9841 7.89242 16.9087Z" fill="#111111"/>
<path fill-rule="evenodd" clip-rule="evenodd" d="M7.89242 15.718C7.95127 15.6426 8.06313 15.627 8.14227 15.683L15.0044 20.5437L22.2207 15.8492C22.3022 15.7962 22.4133 15.8161 22.4689 15.8937C22.5245 15.9713 22.5036 16.0771 22.4221 16.1301L15.1007 20.893C15.0378 20.9339 14.9546 20.9323 14.8934 20.889L7.92916 15.956C7.85002 15.9 7.83357 15.7934 7.89242 15.718Z" fill="white"/>
<path fill-rule="evenodd" clip-rule="evenodd" d="M7.89242 19.2903C7.95127 19.2149 8.06313 19.1992 8.14227 19.2553L15.0044 24.1159L22.2207 19.4214C22.3022 19.3684 22.4133 19.3884 22.4689 19.466C22.5245 19.5435 22.5036 19.6494 22.4221 19.7024L15.1007 24.4653C15.0378 24.5062 14.9546 24.5046 14.8934 24.4613L7.92916 19.5283C7.85002 19.4722 7.83357 19.3657 7.89242 19.2903Z" fill="#111111"/>
<path fill-rule="evenodd" clip-rule="evenodd" d="M7.89242 20.3108C7.95127 20.2354 8.06313 20.2197 8.14227 20.2758L15.0044 25.1364L22.2207 20.4419C22.3022 20.389 22.4133 20.4089 22.4689 20.4865C22.5245 20.5641 22.5036 20.6699 22.4221 20.7229L15.1007 25.4858C15.0378 25.5267 14.9546 25.5251 14.8934 25.4818L7.92916 20.5488C7.85002 20.4927 7.83357 20.3862 7.89242 20.3108Z" fill="#111111"/>
<path fill-rule="evenodd" clip-rule="evenodd" d="M22.1428 3.74231H8.21427V21.5793L14.9866 26.784L22.1428 21.5738V3.74231ZM22.5 21.7419L14.9807 27.2165L7.85713 21.7419V3.4021H22.5V21.7419Z" fill="#111111"/>
<path d="M16.1497 6.8042C16.3825 6.8042 16.4536 6.92016 16.3631 7.15207L14.0446 13.9936C13.9994 14.113 13.9476 14.1939 13.8894 14.236C13.8377 14.2712 13.7536 14.2887 13.6372 14.2887H13.1231C13.0067 14.2887 12.9161 14.2712 12.8515 14.236C12.7933 14.1939 12.748 14.1166 12.7157 14.0041L10.3875 7.15207C10.3099 6.92016 10.381 6.8042 10.6009 6.8042H11.0957C11.2961 6.8042 11.4352 6.82528 11.5128 6.86745C11.5969 6.90962 11.6583 6.99395 11.6971 7.12045L13.1134 11.6112C13.1392 11.7025 13.1651 11.8044 13.191 11.9169C13.2233 12.0223 13.2492 12.1207 13.2686 12.212C13.288 12.3034 13.3042 12.3877 13.3171 12.465C13.33 12.5423 13.3397 12.6056 13.3462 12.6548C13.3591 12.697 13.3656 12.7216 13.3656 12.7286H13.4238C13.4303 12.7216 13.4432 12.6618 13.4626 12.5494C13.482 12.4369 13.5111 12.2893 13.5499 12.1066C13.5887 11.9239 13.6307 11.7623 13.676 11.6217L15.0826 7.12045C15.1214 6.99395 15.1796 6.90962 15.2572 6.86745C15.3413 6.82528 15.4836 6.8042 15.684 6.8042H16.1497Z" fill="white"/>
<path d="M17.8297 6.8042H19.3407V14.2887H17.8297V6.8042Z" fill="white"/>
<path d="M0 1.02062C0 0.456947 0.479695 0 1.07143 0H28.9286C29.5203 0 30 0.456947 30 1.02062V3.06186C30 3.62553 29.5203 4.08247 28.9286 4.08247H1.07143C0.479694 4.08247 0 3.62553 0 3.06186V1.02062Z" fill="#111111"/>
</svg>
