<svg width="30" height="33" viewBox="0 0 30 33" fill="none" xmlns="http://www.w3.org/2000/svg">
<path d="M3.57143 3.40186H26.7857V23.4388L14.8649 31.9792L3.57143 23.4388V3.40186Z" fill="white"/>
<path fill-rule="evenodd" clip-rule="evenodd" d="M26.0714 4.08227H4.28571V23.1102L14.8767 31.1193L26.0714 23.0992V4.08227ZM26.7857 23.4388L14.8649 31.9792L3.57143 23.4388V3.40186H26.7857V23.4388Z" fill="#111111"/>
<path d="M7.85713 3.40186H22.5V21.7417L14.9807 27.2163L7.85713 21.7417V3.40186Z" fill="#EA5400"/>
<path fill-rule="evenodd" clip-rule="evenodd" d="M7.89242 18.0994C7.95127 18.024 8.06313 18.0083 8.14227 18.0644L15.0044 22.925L22.2207 18.2305C22.3022 18.1775 22.4133 18.1975 22.4689 18.275C22.5245 18.3526 22.5036 18.4585 22.4221 18.5114L15.1007 23.2743C15.0378 23.3153 14.9546 23.3137 14.8934 23.2704L7.92916 18.3374C7.85002 18.2813 7.83357 18.1748 7.89242 18.0994Z" fill="white"/>
<path fill-rule="evenodd" clip-rule="evenodd" d="M7.89242 16.9089C7.95127 16.8336 8.06313 16.8179 8.14227 16.8739L15.0044 21.7346L22.2207 17.0401C22.3022 16.9871 22.4133 17.007 22.4689 17.0846C22.5245 17.1622 22.5036 17.268 22.4221 17.321L15.1007 22.0839C15.0378 22.1248 14.9546 22.1232 14.8934 22.0799L7.92916 17.1469C7.85002 17.0909 7.83357 16.9843 7.89242 16.9089Z" fill="white"/>
<path fill-rule="evenodd" clip-rule="evenodd" d="M7.89242 15.718C7.95127 15.6426 8.06313 15.627 8.14227 15.683L15.0044 20.5437L22.2207 15.8492C22.3022 15.7962 22.4133 15.8161 22.4689 15.8937C22.5245 15.9713 22.5036 16.0771 22.4221 16.1301L15.1007 20.893C15.0378 20.9339 14.9546 20.9323 14.8934 20.889L7.92916 15.956C7.85002 15.9 7.83357 15.7934 7.89242 15.718Z" fill="white"/>
<path fill-rule="evenodd" clip-rule="evenodd" d="M7.89242 19.2903C7.95127 19.2149 8.06313 19.1992 8.14227 19.2553L15.0044 24.1159L22.2207 19.4214C22.3022 19.3684 22.4133 19.3884 22.4689 19.466C22.5245 19.5435 22.5036 19.6494 22.4221 19.7024L15.1007 24.4653C15.0378 24.5062 14.9546 24.5046 14.8934 24.4613L7.92916 19.5283C7.85002 19.4722 7.83357 19.3657 7.89242 19.2903Z" fill="#111111"/>
<path fill-rule="evenodd" clip-rule="evenodd" d="M7.89242 20.3108C7.95127 20.2354 8.06313 20.2197 8.14227 20.2758L15.0044 25.1364L22.2207 20.4419C22.3022 20.389 22.4133 20.4089 22.4689 20.4865C22.5245 20.5641 22.5036 20.6699 22.4221 20.7229L15.1007 25.4858C15.0378 25.5267 14.9546 25.5251 14.8934 25.4818L7.92916 20.5488C7.85002 20.4927 7.83357 20.3862 7.89242 20.3108Z" fill="#111111"/>
<path fill-rule="evenodd" clip-rule="evenodd" d="M22.1428 3.74206H8.21427V21.5791L14.9866 26.7837L22.1428 21.5735V3.74206ZM22.5 21.7417L14.9807 27.2163L7.85713 21.7417V3.40186H22.5V21.7417Z" fill="#111111"/>
<path d="M14.7474 6.8042C14.9813 6.8042 15.0528 6.92016 14.9618 7.15207L12.6328 13.9936C12.5873 14.113 12.5354 14.1939 12.4769 14.236C12.4249 14.2712 12.3405 14.2887 12.2235 14.2887H11.7071C11.5901 14.2887 11.4992 14.2712 11.4342 14.236C11.3758 14.1939 11.3303 14.1166 11.2978 14.0041L8.95908 7.15207C8.88112 6.92016 8.95258 6.8042 9.17346 6.8042H9.67044C9.87183 6.8042 10.0115 6.82528 10.0895 6.86745C10.1739 6.90962 10.2356 6.99395 10.2746 7.12045L11.6973 11.6112C11.7233 11.7025 11.7493 11.8044 11.7753 11.9169C11.8078 12.0223 11.8338 12.1207 11.8532 12.212C11.8727 12.3034 11.889 12.3877 11.902 12.465C11.915 12.5423 11.9247 12.6056 11.9312 12.6548C11.9442 12.697 11.9507 12.7216 11.9507 12.7286H12.0092C12.0157 12.7216 12.0287 12.6618 12.0481 12.5494C12.0676 12.4369 12.0969 12.2893 12.1358 12.1066C12.1748 11.9239 12.2171 11.7623 12.2625 11.6217L13.6755 7.12045C13.7145 6.99395 13.773 6.90962 13.8509 6.86745C13.9354 6.82528 14.0783 6.8042 14.2797 6.8042H14.7474Z" fill="white"/>
<path d="M15.7143 6.8042H17.1429V14.2887H15.7143V6.8042Z" fill="white"/>
<path d="M17.8571 6.8042H19.2857V14.2887H17.8571V6.8042Z" fill="white"/>
<path d="M20 6.8042H21.4286V14.2887H20V6.8042Z" fill="white"/>
<path d="M0 1.02062C0 0.456947 0.479695 0 1.07143 0H28.9286C29.5203 0 30 0.456947 30 1.02062V3.06186C30 3.62553 29.5203 4.08247 28.9286 4.08247H1.07143C0.479694 4.08247 0 3.62553 0 3.06186V1.02062Z" fill="#111111"/>
</svg>
