<svg width="16" height="22" viewBox="0 0 16 22" fill="none" xmlns="http://www.w3.org/2000/svg">
<path d="M14.5917 8.81674H4.70422V5.63078C4.70422 3.98287 5.80282 2.55469 7.34087 2.2251C9.42822 1.89552 11.2959 3.43357 11.2959 5.52092C11.2959 6.18008 11.8452 6.61953 12.3945 6.61953C12.9438 6.61953 13.4931 6.18008 13.4931 5.52092C13.4931 2.33497 10.7465 -0.301687 7.45073 0.0278943C4.59436 0.357476 2.50701 2.88427 2.50701 5.74064V8.81674H1.4084C0.859102 8.81674 0.309799 9.25618 0.309799 9.91534V20.9014C0.309799 21.4507 0.859102 22 1.4084 22H14.5917C15.2508 22 15.6903 21.4507 15.6903 20.9014V9.91534C15.6903 9.25618 15.2508 8.81674 14.5917 8.81674ZM9.09864 16.1774V17.6056C9.09864 18.2647 8.6592 18.7042 8.00004 18.7042C7.34087 18.7042 6.90143 18.2647 6.90143 17.6056V16.1774C6.24227 15.7379 5.80282 15.0788 5.80282 14.3098C5.80282 12.8816 7.12115 11.8928 8.54934 12.2224C9.31836 12.4421 9.97752 13.1013 10.1972 13.8703C10.417 14.8591 9.86766 15.7379 9.09864 16.1774Z" fill="#128F77"/>
</svg>
