<svg width="23" height="22" viewBox="0 0 23 22" fill="none" xmlns="http://www.w3.org/2000/svg">
<path d="M10.1019 7.07854V14.9211H12.3426V7.07854H10.1019Z" fill="white"/>
<path fill-rule="evenodd" clip-rule="evenodd" d="M15.7037 12.6804H17.3843C18.1271 12.6804 18.8396 12.3853 19.3649 11.86C19.8901 11.3347 20.1852 10.6223 20.1852 9.87947C20.1852 9.13661 19.8901 8.42419 19.3649 7.89891C18.8396 7.37364 18.1271 7.07854 17.3843 7.07854H13.463V14.9211H15.7037V12.6804ZM15.7037 9.31928V10.4397H17.3843C17.5329 10.4397 17.6754 10.3806 17.7804 10.2756C17.8855 10.1705 17.9445 10.028 17.9445 9.87947C17.9445 9.7309 17.8855 9.58841 17.7804 9.48336C17.6754 9.3783 17.5329 9.31928 17.3843 9.31928H15.7037Z" fill="white"/>
<path fill-rule="evenodd" clip-rule="evenodd" d="M15.7037 9.31928V10.4397H17.3843C17.5329 10.4397 17.6754 10.3806 17.7804 10.2756C17.8855 10.1705 17.9445 10.028 17.9445 9.87947C17.9445 9.7309 17.8855 9.58841 17.7804 9.48336C17.6754 9.3783 17.5329 9.31928 17.3843 9.31928H15.7037Z" fill="white"/>
<path fill-rule="evenodd" clip-rule="evenodd" d="M1.13893 0.916504H21.3056C21.6027 0.916504 21.8877 1.03454 22.0978 1.24465C22.3079 1.45476 22.426 1.73973 22.426 2.03687V19.9628C22.426 20.2599 22.3079 20.5449 22.0978 20.755C21.8877 20.9651 21.6027 21.0832 21.3056 21.0832H1.13893C0.841784 21.0832 0.556814 20.9651 0.346704 20.755C0.136593 20.5449 0.0185547 20.2599 0.0185547 19.9628V2.03687C0.0185547 1.73973 0.136593 1.45476 0.346704 1.24465C0.556814 1.03454 0.841784 0.916504 1.13893 0.916504ZM10.1019 14.9211V7.07854H12.3426V14.9211H10.1019ZM7.41412 7.07854H9.78258L6.8573 14.8808H4.61656L1.69127 7.07854H4.05973L5.73693 11.6866L7.41412 7.07854ZM17.3843 12.6804H15.7037V14.9211H13.463V7.07854H17.3843C18.1271 7.07854 18.8396 7.37364 19.3649 7.89891C19.8901 8.42419 20.1852 9.13661 20.1852 9.87947C20.1852 10.6223 19.8901 11.3347 19.3649 11.86C18.8396 12.3853 18.1271 12.6804 17.3843 12.6804Z" fill="white"/>
<path d="M9.78258 7.07854H7.41412L5.73693 11.6866L4.05973 7.07854H1.69127L4.61656 14.8808H6.8573L9.78258 7.07854Z" fill="white"/>
<path d="M1.13886 0.916504H21.3055C21.6027 0.916504 21.8876 1.03454 22.0978 1.24465C22.3079 1.45476 22.4259 1.73973 22.4259 2.03687V19.9628C22.4259 20.2599 22.3079 20.5449 22.0978 20.755C21.8876 20.9651 21.6027 21.0832 21.3055 21.0832H1.13886C0.841723 21.0832 0.556753 20.9651 0.346643 20.755C0.136532 20.5449 0.0184937 20.2599 0.0184937 19.9628V2.03687C0.0184937 1.73973 0.136532 1.45476 0.346643 1.24465C0.556753 1.03454 0.841723 0.916504 1.13886 0.916504ZM10.1018 7.07854V14.9211H12.3426V7.07854H10.1018ZM9.78252 7.07854H7.41406L5.73687 11.6866L4.05967 7.07854H1.69121L4.61649 14.8808H6.85724L9.78252 7.07854ZM15.7037 12.6804H17.3842C18.1271 12.6804 18.8395 12.3853 19.3648 11.86C19.8901 11.3347 20.1852 10.6223 20.1852 9.87947C20.1852 9.13661 19.8901 8.42419 19.3648 7.89891C18.8395 7.37364 18.1271 7.07854 17.3842 7.07854H13.4629V14.9211H15.7037V12.6804ZM15.7037 10.4397V9.31928H17.3842C17.5328 9.31928 17.6753 9.3783 17.7803 9.48336C17.8854 9.58841 17.9444 9.7309 17.9444 9.87947C17.9444 10.028 17.8854 10.1705 17.7803 10.2756C17.6753 10.3806 17.5328 10.4397 17.3842 10.4397H15.7037Z" fill="#FFA617"/>
</svg>
