<svg width="100" height="100" fill="none" xmlns="http://www.w3.org/2000/svg"><path d="M100 50c0 27.613-22.387 50-50 50a49.782 49.782 0 01-30.607-10.46c-5.76-4.466 1.197-11.155-2.16-17.686-.409-.79-12.508-.596-12.874-1.409v-.002A49.809 49.809 0 010 50C0 22.387 22.387 0 50 0s50 22.387 50 50z" fill="#A9D9F7"/><path d="M36.46 77.093c6.784 0 12.284-5.5 12.284-12.285 0-6.784-5.5-12.284-12.285-12.284-6.784 0-12.284 5.5-12.284 12.284 0 6.785 5.5 12.285 12.284 12.285z" fill="#FFE04A"/><path d="M37.925 77.003c-.48.058-.969.088-1.465.088-6.785 0-12.285-5.5-12.285-12.283 0-6.786 5.5-12.286 12.285-12.286.496 0 .984.03 1.465.088-6.096.723-10.82 5.909-10.82 12.198 0 6.289 4.724 11.472 10.82 12.195z" fill="#FFBF4D"/><path d="M35.613 61.114l-1.992 7.406a.662.662 0 01-.212.354.566.566 0 01-.36.126h-1.484a.58.58 0 01-.371-.126.692.692 0 01-.201-.354L29 61.114h1.664l1.335 5.692a556.38 556.38 0 00.17.88h.275c.05-.297.11-.595.18-.892l1.325-5.68h1.664zm2.424 0V69h-1.611v-7.886h1.61zM42.308 61c.678 0 1.212.076 1.6.229.396.152.675.415.838.788.17.373.254.895.254 1.566 0 .67-.081 1.192-.244 1.566a1.362 1.362 0 01-.784.777c-.36.144-.844.22-1.452.228a17.632 17.632 0 01-1.399-.091V69h-1.61v-7.886c.289-.03.564-.053.826-.068.261-.015.544-.027.848-.035.31-.007.685-.011 1.123-.011zm-.032 1.314h-1.154v2.526h1.154c.424 0 .714-.084.87-.251.155-.168.233-.503.233-1.006s-.078-.838-.234-1.006c-.155-.175-.445-.263-.869-.263z" fill="#fff"/><path d="M25.582 78.87c0 4.566-2.492 8.55-6.19 10.67a49.95 49.95 0 01-4.39-3.833 50.068 50.068 0 01-10.643-15.26 12.238 12.238 0 018.938-3.86c6.785 0 12.285 5.5 12.285 12.284z" fill="#FFE04A"/><mask id="a" maskUnits="userSpaceOnUse" x="4" y="66" width="22" height="24"><path d="M25.582 78.87c0 4.567-2.492 8.551-6.19 10.67a49.95 49.95 0 01-4.39-3.832 50.068 50.068 0 01-10.643-15.26 12.238 12.238 0 018.938-3.86c6.785 0 12.285 5.5 12.285 12.284z" fill="#FFE04A"/></mask><g mask="url(#a)"><path d="M19.502 75.517h-6.5v-2.115c0-1.094.722-2.043 1.733-2.262 1.373-.218 2.6.803 2.6 2.189 0 .437.362.73.723.73a.727.727 0 00.722-.73c0-2.116-1.806-3.866-3.973-3.647-1.878.218-3.25 1.896-3.25 3.793v2.042h-.722a.727.727 0 00-.723.73v7.293c0 .365.361.73.723.73h8.667a.728.728 0 00.723-.73v-7.294c0-.437-.29-.73-.723-.73zm-3.611 4.887v.948c0 .438-.29.73-.723.73s-.722-.292-.722-.73v-.948c-.433-.292-.722-.73-.722-1.24 0-.948.867-1.605 1.806-1.386.505.146.939.584 1.083 1.094.145.657-.216 1.24-.722 1.532z" fill="#128F77"/></g><path d="M14.764 66.672a12.279 12.279 0 00-9.246 6.178 48.59 48.59 0 01-1.159-2.405v-.002a12.242 12.242 0 0110.405-3.771z" fill="#FFBF4D"/><path d="M58.592 58.955c6.785 0 12.285-5.5 12.285-12.284 0-6.785-5.5-12.285-12.285-12.285-6.784 0-12.284 5.5-12.284 12.285 0 6.784 5.5 12.284 12.284 12.284z" fill="#FFE04A"/><path d="M60.058 58.865c-.48.059-.969.088-1.465.088-6.785 0-12.285-5.5-12.285-12.283 0-6.785 5.5-12.285 12.285-12.285.496 0 .984.029 1.465.087-6.096.723-10.82 5.909-10.82 12.198 0 6.289 4.724 11.472 10.82 12.195z" fill="#FFBF4D"/><path d="M58.592 53.716a7.046 7.046 0 100-14.093 7.046 7.046 0 000 14.093z" fill="#FFBF4D"/><path d="M59.3 55.637c-.152-.17-.325-.364-.456-.39a1.18 1.18 0 00-.597.193l.004-.004a1.731 1.731 0 01-.702.23l-.007.001h-.006a.58.58 0 01-.224-.044h.004c-.299-.123-.42-.469-.535-.804a1.252 1.252 0 00-.279-.544l.002.002a.64.64 0 00-.34-.062h.003c-.089 0-.183.005-.276.011a5.021 5.021 0 01-.298.011.882.882 0 01-.646-.2l.001.002a1.188 1.188 0 01-.185-.95l-.002.008a1.252 1.252 0 00-.05-.622l.002.01a1.24 1.24 0 00-.535-.276l-.008-.002c-.335-.116-.682-.237-.805-.536a1.188 1.188 0 01.19-.939l-.002.004c.111-.179.176-.382.187-.592v-.003c-.026-.132-.219-.305-.39-.457-.266-.236-.541-.481-.541-.81 0-.327.275-.572.541-.81.17-.152.364-.325.39-.457a1.255 1.255 0 00-.192-.597l.003.005a1.187 1.187 0 01-.186-.944l-.001.008c.124-.299.47-.42.805-.535.21-.05.393-.146.544-.28l-.002.002c.069-.2.085-.413.048-.62l.001.007a1.2 1.2 0 01.189-.946l-.003.004a.882.882 0 01.648-.197h-.004c.097 0 .198.005.298.01.094.006.188.011.277.011a.64.64 0 00.34-.062l-.004.002c.131-.15.228-.333.275-.535l.002-.008c.117-.335.237-.682.536-.805a.569.569 0 01.22-.042h.006c.265.027.506.11.718.234l-.009-.004c.176.116.38.181.59.19h.003c.132-.026.304-.22.456-.39.24-.267.486-.542.814-.542.328 0 .573.275.811.541.152.17.325.364.456.39.213-.01.419-.076.597-.192l-.005.003c.215-.127.455-.205.703-.23h.013a.58.58 0 01.224.044l-.004-.001c.299.124.42.47.535.804.05.21.147.393.279.544h-.002a.635.635 0 00.34.06h-.002c.088 0 .182-.006.276-.011.1-.005.202-.01.298-.01a.883.883 0 01.646.199l-.001-.002a1.193 1.193 0 01.185.95l.001-.008c-.035.209-.018.422.052.622l-.002-.009c.149.132.332.229.534.275l.008.002c.335.117.682.238.805.536a1.194 1.194 0 01-.19.939l.002-.004c-.111.177-.176.38-.188.589v.003c.025.132.219.305.39.457.268.239.543.484.543.812 0 .328-.275.574-.542.812-.17.152-.364.324-.39.456.014.221.083.424.192.598l-.003-.005a1.188 1.188 0 01.186.943l.001-.008c-.123.3-.47.42-.804.535a1.248 1.248 0 00-.544.28v-.002c-.068.2-.084.413-.047.62v-.007a1.198 1.198 0 01-.19.945l.003-.003a.884.884 0 01-.647.198h.004c-.098 0-.198-.005-.299-.01a4.806 4.806 0 00-.276-.012.635.635 0 00-.34.063l.004-.002a1.246 1.246 0 00-.275.534l-.002.009c-.117.335-.238.682-.536.804a.57.57 0 01-.22.043h-.006a1.748 1.748 0 01-.718-.235l.008.004a1.15 1.15 0 00-.59-.189h-.002c-.132.026-.304.22-.456.39-.24.266-.486.541-.815.541-.328 0-.574-.275-.812-.54zm2.15-9.616l-2.97 5.396a.1.1 0 00.001.1.1.1 0 00.087.05h.515a.1.1 0 00.088-.051l2.965-5.398a.1.1 0 00-.001-.1.1.1 0 00-.087-.05h-.51a.1.1 0 00-.089.053zm-.429 2.768a.68.68 0 00-.247.525v1.462a.67.67 0 00.246.519h.002a.903.903 0 001.159-.001l-.002.002a.667.667 0 00.248-.52v-1.46a.684.684 0 00-.242-.523h-.001a.839.839 0 00-.562-.216h-.019.002-.02a.852.852 0 00-.564.213h.001-.001zm-2.583-2.621a.681.681 0 00-.247.525v1.46c0 .21.096.399.247.522v.002a.896.896 0 001.161-.001.672.672 0 00.25-.523v-1.457a.68.68 0 00-.247-.525.897.897 0 00-1.166 0l.002-.001v-.002zm3.03 4.687a.112.112 0 01-.042-.087v-1.462a.11.11 0 01.041-.086.174.174 0 01.114-.043h.014c.042 0 .083.015.115.042a.11.11 0 01.042.087v1.462a.112.112 0 01-.041.086.193.193 0 01-.245 0h.002zm-2.58-2.62a.113.113 0 01-.043-.088v-1.461c0-.035.017-.066.042-.087a.192.192 0 01.121-.042c.047 0 .09.016.123.043a.111.111 0 01.041.087v1.461a.111.111 0 01-.041.087.192.192 0 01-.122.043.192.192 0 01-.122-.043z" fill="#fff"/><path fill-rule="evenodd" clip-rule="evenodd" d="M58.438 46.168a.681.681 0 00-.247.525v1.46c0 .21.096.399.247.522v.002a.896.896 0 001.161-.001.672.672 0 00.25-.523v-1.457a.68.68 0 00-.247-.525.897.897 0 00-1.166 0l.002-.001v-.002zm.418 2.027a.113.113 0 00.031.04.192.192 0 00.122.043.192.192 0 00.122-.043.111.111 0 00.041-.087v-1.46a.112.112 0 00-.041-.088.192.192 0 00-.123-.043.192.192 0 00-.121.042.113.113 0 00-.042.088v1.461c0 .016.004.032.011.047z" fill="#fff"/><path d="M61.45 46.02l-2.97 5.397a.1.1 0 00.001.1.1.1 0 00.087.05h.515a.1.1 0 00.088-.051l2.965-5.398a.1.1 0 00-.001-.1.1.1 0 00-.087-.05h-.51a.1.1 0 00-.089.053z" fill="#fff"/><path fill-rule="evenodd" clip-rule="evenodd" d="M61.021 48.79a.68.68 0 00-.247.524v1.462a.67.67 0 00.246.519h.002a.903.903 0 001.159-.001l-.002.002a.667.667 0 00.248-.52v-1.46a.684.684 0 00-.242-.523h-.001a.839.839 0 00-.562-.216h-.036a.851.851 0 00-.564.213h-.001zm.416 2.026a.112.112 0 00.03.039v-.002a.193.193 0 00.244 0 .112.112 0 00.04-.086v-1.461a.11.11 0 00-.041-.087.176.176 0 00-.115-.042h-.014a.174.174 0 00-.114.043.11.11 0 00-.041.086v1.462c0 .016.003.033.01.048z" fill="#fff"/><path d="M59.3 55.637c-.152-.17-.325-.364-.456-.39a1.18 1.18 0 00-.597.193l.004-.004a1.731 1.731 0 01-.702.23l-.007.001h-.006a.58.58 0 01-.224-.044h.004c-.299-.123-.42-.469-.535-.804a1.252 1.252 0 00-.279-.544l.002.002a.64.64 0 00-.34-.062h.003c-.089 0-.183.005-.276.011a5.021 5.021 0 01-.298.011.882.882 0 01-.646-.2l.001.002a1.188 1.188 0 01-.185-.95l-.002.008a1.252 1.252 0 00-.05-.622l.002.01a1.24 1.24 0 00-.535-.276l-.008-.002c-.335-.116-.682-.237-.805-.536a1.188 1.188 0 01.19-.939l-.002.004c.111-.179.176-.382.187-.592v-.003c-.026-.132-.219-.305-.39-.457-.266-.236-.541-.481-.541-.81 0-.327.275-.572.541-.81.17-.152.364-.325.39-.457a1.255 1.255 0 00-.192-.597l.003.005a1.187 1.187 0 01-.186-.944l-.001.008c.124-.299.47-.42.805-.535.21-.05.393-.146.544-.28l-.002.002c.069-.2.085-.413.048-.62l.001.007a1.2 1.2 0 01.189-.946l-.003.004a.882.882 0 01.648-.197h-.004c.097 0 .198.005.298.01.094.006.188.011.277.011a.64.64 0 00.34-.062l-.004.002c.131-.15.228-.333.275-.535l.002-.008c.117-.335.237-.682.536-.805a.569.569 0 01.22-.042h.006c.265.027.506.11.718.234l-.009-.004c.176.116.38.181.59.19h.003c.132-.026.304-.22.456-.39.24-.267.486-.542.814-.542.328 0 .573.275.811.541.152.17.325.364.456.39.213-.01.419-.076.597-.192l-.005.003c.215-.127.455-.205.703-.23h.013a.58.58 0 01.224.044l-.004-.001c.299.124.42.47.535.804.05.21.147.393.279.544h-.002a.635.635 0 00.34.06h-.002c.088 0 .182-.006.276-.011.1-.005.202-.01.298-.01a.883.883 0 01.646.199l-.001-.002a1.193 1.193 0 01.185.95l.001-.008c-.035.209-.018.422.052.622l-.002-.009c.149.132.332.229.534.275l.008.002c.335.117.682.238.805.536a1.195 1.195 0 01-.19.939l.002-.004c-.111.177-.176.38-.188.589v.003c.025.132.219.305.39.457.268.239.543.484.543.812 0 .328-.275.574-.542.812-.17.152-.364.324-.39.456.014.221.083.424.192.598l-.003-.005a1.188 1.188 0 01.186.943l.001-.008c-.123.3-.47.42-.804.535a1.248 1.248 0 00-.544.28v-.002a1.23 1.23 0 00-.047.62v-.007a1.198 1.198 0 01-.19.945l.003-.003a.884.884 0 01-.647.198h.004c-.098 0-.198-.005-.299-.01a4.806 4.806 0 00-.276-.012.635.635 0 00-.34.063l.004-.002a1.246 1.246 0 00-.275.534l-.002.009c-.117.335-.238.682-.536.804a.57.57 0 01-.22.043h-.006a1.751 1.751 0 01-.718-.235l.008.004a1.15 1.15 0 00-.59-.189h-.002c-.132.026-.304.22-.456.39-.24.266-.486.541-.815.541-.328 0-.573-.275-.812-.54zm2.15-9.616l-2.97 5.396a.1.1 0 00.001.1.1.1 0 00.087.05h.515a.1.1 0 00.088-.051v-.001l2.965-5.398a.1.1 0 00-.001-.1.1.1 0 00-.087-.05h-.51a.1.1 0 00-.089.053zm-.43 2.768a.68.68 0 00-.246.525v1.462a.67.67 0 00.246.519h.002a.903.903 0 001.159-.001l-.002.002a.667.667 0 00.248-.52v-1.46a.684.684 0 00-.242-.523h-.001a.839.839 0 00-.562-.216h-.019.002-.02a.852.852 0 00-.564.213h.001-.001zm-2.582-2.621a.681.681 0 00-.247.525v1.46c0 .21.096.399.247.522v.002a.896.896 0 001.161-.001.672.672 0 00.25-.523v-1.457a.68.68 0 00-.247-.525.897.897 0 00-1.166 0l.002-.001v-.002zm3.03 4.687a.112.112 0 01-.042-.087v-1.462a.11.11 0 01.041-.086.174.174 0 01.114-.043h.014c.042 0 .083.015.115.042a.11.11 0 01.042.087v1.462a.112.112 0 01-.041.086.193.193 0 01-.245 0h.001zm-2.58-2.62a.113.113 0 01-.043-.088v-1.461c0-.035.017-.066.042-.087a.192.192 0 01.121-.042c.047 0 .09.016.123.043a.112.112 0 01.041.087v1.461a.111.111 0 01-.041.087.192.192 0 01-.122.043.192.192 0 01-.122-.043z" fill="#EA5400"/><path d="M46.411 23.385h7.177V4.515a3.589 3.589 0 00-7.177 0v18.87z" fill="#413D44"/><path d="M53.588 30.914v37.588L50 71.265l-3.588-2.763V30.914A3.587 3.587 0 0150 27.326a3.587 3.587 0 013.588 3.588z" fill="#EAE6E1"/><path d="M51.691 27.75a3.587 3.587 0 00-5.28 3.164v37.588l2.071 1.594 1.313-1.594V30.914c0-1.37.768-2.56 1.896-3.164z" fill="#D8D4D0"/><path d="M5.22 50.72a12.614 12.614 0 0111.197-6.792c4.866 0 9.09 2.756 11.193 6.793a12.614 12.614 0 0111.197-6.793c4.866 0 9.09 2.756 11.193 6.793a12.614 12.614 0 0111.197-6.793c4.866 0 9.09 2.756 11.193 6.793a12.614 12.614 0 0111.197-6.793c4.866 0 9.09 2.756 11.193 6.793C94.78 25.989 74.731 5.94 50 5.94S5.22 25.988 5.22 50.72z" fill="#FC5965"/><path d="M50 5.94c-6.276 0-11.475 16.509-12.385 38.043A12.622 12.622 0 0027.61 50.72a12.613 12.613 0 00-11.192-6.794c-4.87 0-9.093 2.757-11.198 6.794C5.22 25.99 25.27 5.94 50 5.94z" fill="#E54559"/><path d="M82.939 17.782C74.14 8.983 62.443 4.138 50 4.138c-12.443 0-24.14 4.845-32.939 13.644C8.263 26.58 3.418 38.276 3.418 50.72a1.802 1.802 0 003.604 0c0-11.48 4.47-22.273 12.588-30.39 5.432-5.432 12.062-9.228 19.294-11.147-2.34 2.293-4.482 5.336-6.348 9.067-4.351 8.703-6.748 20.235-6.748 32.47a1.802 1.802 0 103.604 0c0-11.687 2.261-22.646 6.367-30.858 3.46-6.919 7.814-11.083 12.419-11.948V50.72a1.802 1.802 0 003.604 0V7.914c4.604.865 8.959 5.029 12.418 11.948 4.106 8.212 6.368 19.171 6.368 30.858a1.802 1.802 0 103.604 0c0-12.236-2.397-23.767-6.749-32.47-1.865-3.731-4.008-6.774-6.348-9.067 7.232 1.92 13.863 5.715 19.295 11.147 8.117 8.117 12.588 18.91 12.588 30.39a1.802 1.802 0 003.604 0c0-12.443-4.845-24.14-13.643-32.938z" fill="#E54559"/><path d="M17.06 17.78C25.859 8.984 37.558 4.139 50 4.139c-2.252 0-4.415 1.993-6.334 5.745-2.898 2.005-5.59 5.384-7.887 9.977-4.106 8.214-6.367 19.172-6.367 30.86a1.802 1.802 0 01-3.604 0c0-12.236 2.397-23.767 6.748-32.47 1.866-3.733 4.008-6.775 6.347-9.067-7.231 1.92-13.863 5.715-19.294 11.146-8.116 8.118-12.587 18.91-12.587 30.39a1.803 1.803 0 01-3.604 0c0-12.442 4.845-24.139 13.643-32.938z" fill="#CE3A53"/><path d="M53.588 68.502v13.62c0 6.62-5.385 12.007-12.004 12.007a11.94 11.94 0 01-8.49-3.514 12.036 12.036 0 01-3.41-6.88 3.589 3.589 0 117.113-.951 4.826 4.826 0 001.369 2.753 4.803 4.803 0 003.418 1.414 4.834 4.834 0 004.828-4.828V68.502h7.176z" fill="#5A565E"/><path d="M44.967 86.95a4.834 4.834 0 004.828-4.827V68.502h-3.383v13.62a4.836 4.836 0 01-3.14 4.524 4.84 4.84 0 001.695.305zm-8.49 3.665a12.036 12.036 0 01-3.41-6.88 3.589 3.589 0 011.865-3.637 3.57 3.57 0 00-2.166-.397 3.59 3.59 0 00-3.082 4.033 12.036 12.036 0 003.41 6.881 11.941 11.941 0 008.49 3.514c.571 0 1.133-.043 1.683-.12a11.93 11.93 0 01-6.79-3.394z" fill="#413D44"/><path d="M70.877 84.9c6.784 0 12.284-5.5 12.284-12.285 0-6.784-5.5-12.284-12.284-12.284-6.785 0-12.285 5.5-12.285 12.284 0 6.785 5.5 12.285 12.285 12.285z" fill="#FFE04A"/><path d="M72.342 84.81c-.48.058-.968.088-1.465.088-6.785 0-12.285-5.5-12.285-12.283 0-6.786 5.5-12.286 12.285-12.286.497 0 .985.03 1.465.088-6.095.723-10.82 5.908-10.82 12.198 0 6.289 4.725 11.472 10.82 12.195z" fill="#FFBF4D"/><path d="M70.877 79.66a7.047 7.047 0 100-14.092 7.047 7.047 0 000 14.093z" fill="#FFBF4D"/><circle cx="72.238" cy="73.361" fill="#fff" r="6.882"/><path fill-rule="evenodd" clip-rule="evenodd" d="M79.775 73.033a7.866 7.866 0 11-15.73 0 7.866 7.866 0 0115.73 0zm-7.583-2.058c-.765.318-2.294.976-4.587 1.975-.372.148-.567.293-.585.435-.03.24.27.334.678.462.055.018.113.035.172.055.402.13.942.283 1.222.289.255.005.54-.1.854-.315 2.142-1.446 3.247-2.177 3.317-2.193.05-.011.117-.025.163.016.046.04.041.118.037.139-.03.126-1.206 1.22-1.816 1.787-.19.176-.324.301-.352.33-.061.064-.124.124-.184.183-.374.359-.653.629.015 1.07a62.978 62.978 0 01.835.56c.28.191.559.381.92.619.092.06.18.122.266.183.326.233.619.441.98.408.21-.02.428-.216.538-.806.26-1.393.773-4.41.891-5.655a1.381 1.381 0 00-.013-.31.331.331 0 00-.113-.212.513.513 0 00-.304-.092c-.296.005-.75.163-2.934 1.072z" fill="#5584B6"/></svg>