<svg width="30" height="33" fill="none" xmlns="http://www.w3.org/2000/svg"><path d="M3.571 3.402h23.215V23.44l-11.921 8.54L3.57 23.44V3.402z" fill="#fff"/><path fill-rule="evenodd" clip-rule="evenodd" d="M26.071 4.083H4.286V23.11l10.59 8.01 11.195-8.02V4.082zm.715 19.356l-11.921 8.54L3.57 23.44V3.402h23.215V23.44z" fill="#111"/><path d="M7.857 3.402H22.5v18.34l-7.52 5.474-7.123-5.474V3.402z" fill="#EA5400"/><path fill-rule="evenodd" clip-rule="evenodd" d="M22.143 3.742H8.214V21.58l6.773 5.205 7.156-5.21V3.742zm.357 18l-7.52 5.474-7.123-5.474V3.402H22.5v18.34z" fill="#111"/><path fill-rule="evenodd" clip-rule="evenodd" d="M7.892 18.1a.184.184 0 01.25-.036l6.862 4.861 7.217-4.695a.184.184 0 01.248.045.165.165 0 01-.047.236l-7.321 4.763a.186.186 0 01-.208-.004L7.93 18.337a.165.165 0 01-.037-.238z" fill="#111"/><path fill-rule="evenodd" clip-rule="evenodd" d="M7.892 16.909a.184.184 0 01.25-.035l6.862 4.86 7.217-4.694a.184.184 0 01.248.044.165.165 0 01-.047.237l-7.321 4.763a.186.186 0 01-.208-.004L7.93 17.147a.165.165 0 01-.037-.238z" fill="#111"/><path fill-rule="evenodd" clip-rule="evenodd" d="M7.892 19.29a.185.185 0 01.25-.035l6.862 4.86 7.217-4.694a.184.184 0 01.248.045.165.165 0 01-.047.236l-7.321 4.763a.186.186 0 01-.208-.004L7.93 19.528a.165.165 0 01-.037-.238z" fill="#111"/><path fill-rule="evenodd" clip-rule="evenodd" d="M7.892 20.31a.184.184 0 01.25-.034l6.862 4.86 7.217-4.694a.184.184 0 01.248.044.165.165 0 01-.047.237l-7.321 4.763a.186.186 0 01-.208-.004L7.93 20.549a.165.165 0 01-.037-.238z" fill="#111"/><path d="M10.357 6.804h1.511v7.485h-1.51V6.804zm8.733 0c.232 0 .303.116.213.348l-2.319 6.842a.524.524 0 01-.155.242.463.463 0 01-.252.053h-.514a.575.575 0 01-.272-.053c-.058-.042-.104-.12-.136-.232l-2.328-6.852c-.078-.232-.006-.348.213-.348h.495c.2 0 .34.021.417.063.084.043.146.127.185.253l1.416 4.491c.026.091.052.193.078.306.032.105.058.204.077.295a5.921 5.921 0 01.078.443c.013.042.02.067.02.074h.057a.942.942 0 00.04-.18c.019-.112.048-.26.087-.442.038-.183.08-.345.126-.485l1.406-4.502c.039-.126.097-.21.175-.253.084-.042.226-.063.427-.063h.465z" fill="#fff"/><path d="M0 1.02C0 .458.48 0 1.071 0H28.93C29.52 0 30 .457 30 1.02v2.042c0 .564-.48 1.02-1.071 1.02H1.07C.48 4.082 0 3.626 0 3.062V1.02z" fill="#111"/></svg>