<svg width="30" height="33" fill="none" xmlns="http://www.w3.org/2000/svg"><path d="M3.571 3.402h23.215v20.037l-11.921 8.54L3.57 23.44V3.402z" fill="#fff"/><path fill-rule="evenodd" clip-rule="evenodd" d="M26.071 4.082H4.286V23.11l10.59 8.01 11.195-8.02V4.081zm.715 19.357l-11.921 8.54L3.57 23.44V3.402h23.215v20.037z" fill="#111"/><path d="M7.857 3.402H22.5v18.34l-7.52 5.474-7.123-5.474V3.402z" fill="#EA5400"/><path fill-rule="evenodd" clip-rule="evenodd" d="M7.892 18.1a.184.184 0 01.25-.036l6.862 4.861 7.217-4.695a.184.184 0 01.248.045.165.165 0 01-.047.236l-7.321 4.763a.186.186 0 01-.208-.004L7.93 18.337a.165.165 0 01-.037-.238z" fill="#111"/><path fill-rule="evenodd" clip-rule="evenodd" d="M7.892 16.909a.185.185 0 01.25-.035l6.862 4.86 7.217-4.694a.184.184 0 01.248.045.165.165 0 01-.047.236l-7.321 4.763a.186.186 0 01-.208-.004L7.93 17.147a.165.165 0 01-.037-.238z" fill="#fff"/><path fill-rule="evenodd" clip-rule="evenodd" d="M7.892 15.718a.185.185 0 01.25-.035l6.862 4.86 7.217-4.694a.184.184 0 01.248.045.165.165 0 01-.047.236l-7.321 4.763a.186.186 0 01-.208-.004L7.93 15.956a.165.165 0 01-.037-.238z" fill="#fff"/><path fill-rule="evenodd" clip-rule="evenodd" d="M7.892 19.29a.184.184 0 01.25-.035l6.862 4.86 7.217-4.694a.184.184 0 01.248.045.165.165 0 01-.047.236l-7.321 4.763a.186.186 0 01-.208-.004L7.93 19.528a.165.165 0 01-.037-.238z" fill="#111"/><path fill-rule="evenodd" clip-rule="evenodd" d="M7.892 20.31a.184.184 0 01.25-.034l6.862 4.86 7.217-4.694a.184.184 0 01.248.044.165.165 0 01-.047.237l-7.321 4.763a.186.186 0 01-.208-.004L7.93 20.549a.165.165 0 01-.037-.238z" fill="#111"/><path fill-rule="evenodd" clip-rule="evenodd" d="M22.143 3.742H8.214V21.58l6.773 5.205 7.156-5.21V3.741zm.357 18l-7.52 5.474-7.123-5.474V3.402H22.5v18.34z" fill="#111"/><path d="M15.819 6.804c.234 0 .305.116.214.348l-2.329 6.842a.523.523 0 01-.156.242.465.465 0 01-.253.053h-.517a.58.58 0 01-.272-.053c-.059-.042-.104-.12-.137-.232l-2.338-6.852c-.078-.232-.007-.348.214-.348h.497c.201 0 .34.021.419.063.084.043.146.127.185.253l1.423 4.491c.026.091.052.193.078.306.032.105.058.204.078.295a5.941 5.941 0 01.078.443.47.47 0 01.02.074h.058a.941.941 0 00.039-.18c.02-.112.048-.26.087-.442a5.31 5.31 0 01.127-.485l1.413-4.502c.039-.126.097-.21.175-.253.085-.042.228-.063.43-.063h.467zm.967 0h1.428v7.485h-1.428V6.804zm2.143 0h1.428v7.485H18.93V6.804z" fill="#fff"/><path d="M0 1.02C0 .458.48 0 1.071 0H28.93C29.52 0 30 .457 30 1.02v2.042c0 .564-.48 1.02-1.071 1.02H1.07C.48 4.082 0 3.626 0 3.062V1.02z" fill="#111"/></svg>