<svg width="22" height="22" fill="none" xmlns="http://www.w3.org/2000/svg"><path d="M9.777 21.185c-.229-.257-.49-.548-.687-.587-.32.014-.63.114-.899.29l.007-.005c-.324.19-.685.308-1.058.346l-.011.001h-.01a.875.875 0 01-.336-.067l.006.002c-.45-.187-.633-.708-.807-1.212a1.886 1.886 0 00-.419-.82l.002.002a.963.963 0 00-.51-.092h.003c-.134 0-.275.008-.416.016-.152.01-.304.017-.45.017a1.326 1.326 0 01-.972-.3l.002.001a1.793 1.793 0 01-.28-1.43l-.001.011a1.885 1.885 0 00-.077-.936l.003.014a1.868 1.868 0 00-.804-.415l-.013-.003c-.504-.175-1.027-.357-1.212-.807a1.788 1.788 0 01.287-1.414l-.004.005a1.88 1.88 0 00.282-.892v-.004c-.039-.2-.33-.459-.587-.688C.414 11.863 0 11.493 0 11c0-.494.414-.863.815-1.222.257-.229.548-.49.587-.687a1.89 1.89 0 00-.29-.9l.005.008a1.79 1.79 0 01-.28-1.422l-.001.012c.187-.45.708-.633 1.212-.807.317-.074.593-.22.82-.42l-.002.002c.103-.3.127-.621.071-.934l.002.011a1.805 1.805 0 01.284-1.425l-.004.005a1.33 1.33 0 01.976-.297h-.006c.147 0 .298.009.45.017.14.008.282.016.415.016a.964.964 0 00.513-.094l-.006.003c.197-.226.343-.5.415-.805l.003-.013c.175-.504.357-1.027.806-1.212a.859.859 0 01.331-.064h.01c.4.041.762.165 1.082.354l-.013-.007c.265.174.572.273.888.285h.004c.199-.038.458-.33.687-.586C10.136.414 10.506 0 11 0s.864.414 1.222.816c.23.257.49.548.687.587.32-.015.63-.115.899-.29l-.008.004c.324-.19.685-.308 1.06-.345l.01-.001h.01a.88.88 0 01.336.067L15.21.836c.45.187.633.708.807 1.212.074.317.22.592.419.82l-.002-.002a.956.956 0 00.511.09h-.003c.134 0 .275-.008.416-.015.152-.009.304-.017.45-.017a1.33 1.33 0 01.973.3l-.002-.001a1.796 1.796 0 01.279 1.43l.001-.011c-.053.314-.027.636.078.936l-.003-.013c.224.198.5.344.804.414l.013.003c.504.176 1.027.358 1.212.807a1.798 1.798 0 01-.286 1.414l.004-.005a1.87 1.87 0 00-.284.886v.006c.038.199.33.458.586.687.404.36.819.73.819 1.224s-.415.864-.816 1.223c-.257.229-.548.488-.587.687.02.333.124.638.29.9l-.005-.008a1.787 1.787 0 01.28 1.421v-.012c-.185.451-.707.633-1.21.807-.305.07-.586.214-.82.42l.001-.002c-.103.3-.128.621-.071.934l-.002-.011a1.805 1.805 0 01-.284 1.424l.004-.005a1.33 1.33 0 01-.975.299h.006c-.147 0-.298-.009-.45-.017a7.222 7.222 0 00-.416-.016.958.958 0 00-.512.094l.005-.003c-.201.23-.344.507-.414.805l-.003.013c-.176.504-.357 1.027-.806 1.212a.858.858 0 01-.331.064h-.01a2.634 2.634 0 01-1.081-.355l.012.007a1.732 1.732 0 00-.888-.285h-.004c-.199.039-.458.33-.688.587-.362.402-.731.816-1.226.816s-.864-.414-1.224-.815zM13.015 6.7L8.54 14.829a.152.152 0 00.133.225h.777a.149.149 0 00.132-.078l4.467-8.13a.152.152 0 00-.133-.226h-.77a.152.152 0 00-.132.08zm-.646 4.17a1.027 1.027 0 00-.372.79v2.202c0 .315.145.597.372.782l.001.002a1.367 1.367 0 001.746-.002l-.002.002c.23-.187.374-.468.374-.783v-2.2a1.03 1.03 0 00-.365-.788h-.002a1.264 1.264 0 00-.846-.324h-.028.002-.029c-.313 0-.616.114-.85.32h.001l-.002-.001zM8.48 6.922a1.026 1.026 0 00-.372.79v2.2c0 .317.144.6.371.786l.002.002a1.35 1.35 0 001.749-.002l-.002.002c.231-.188.377-.47.377-.789V7.717a1.02 1.02 0 00-.371-.79l-.002-.002a1.352 1.352 0 00-1.755.001l.002-.002.001-.002zm4.563 7.059a.167.167 0 01-.063-.131v-2.201c0-.053.025-.1.062-.13a.262.262 0 01.172-.064h.022c.063 0 .124.022.172.063a.169.169 0 01.063.13v2.202a.168.168 0 01-.062.13.29.29 0 01-.183.064.29.29 0 01-.184-.065l.001.002zm-3.886-3.947a.17.17 0 01-.064-.131v-2.2c0-.053.025-.1.063-.131a.29.29 0 01.183-.064.29.29 0 01.184.065.168.168 0 01.062.131v2.2a.17.17 0 01-.062.132.29.29 0 01-.183.064.29.29 0 01-.184-.065v-.001z" fill="#fff"/><path fill-rule="evenodd" clip-rule="evenodd" d="M8.48 6.922a1.026 1.026 0 00-.373.79v2.2c0 .317.144.6.371.786l.002.002a1.35 1.35 0 001.749-.002l-.002.002c.231-.188.377-.47.377-.789V7.717a1.02 1.02 0 00-.371-.79l-.002-.002a1.352 1.352 0 00-1.755.001l.002-.002.001-.002zm.63 3.053a.17.17 0 00.046.059h-.001a.29.29 0 00.184.066.29.29 0 00.183-.064.17.17 0 00.063-.131V7.704a.168.168 0 00-.063-.131.29.29 0 00-.184-.066.29.29 0 00-.183.065.17.17 0 00-.063.13v2.201c0 .025.006.05.017.072z" fill="#fff"/><path d="M13.015 6.7L8.54 14.829a.152.152 0 00.133.225h.777a.149.149 0 00.132-.078l4.467-8.13a.152.152 0 00-.133-.226h-.77a.152.152 0 00-.132.08z" fill="#fff"/><path fill-rule="evenodd" clip-rule="evenodd" d="M12.37 10.87a1.027 1.027 0 00-.373.79v2.202c0 .315.145.597.372.782l.001.002a1.367 1.367 0 001.746-.002l-.002.002c.23-.187.374-.468.374-.783v-2.2a1.03 1.03 0 00-.365-.788h-.002a1.264 1.264 0 00-.846-.324h-.055c-.312 0-.614.113-.849.32l-.002-.001zm.626 3.053c.01.022.027.042.046.058l-.002-.002a.29.29 0 00.185.065.29.29 0 00.183-.064.168.168 0 00.062-.13v-2.202a.168.168 0 00-.063-.13.265.265 0 00-.172-.063h-.022a.262.262 0 00-.172.064.167.167 0 00-.062.13v2.201c0 .025.006.05.017.073z" fill="#fff"/><path d="M9.777 21.185c-.229-.257-.49-.548-.687-.587-.32.014-.63.114-.899.29l.007-.005c-.324.19-.685.308-1.058.346l-.011.001h-.01a.875.875 0 01-.336-.067l.006.002c-.45-.187-.633-.708-.807-1.212a1.886 1.886 0 00-.419-.82l.002.002a.963.963 0 00-.51-.092h.003c-.134 0-.275.008-.416.016-.152.01-.304.017-.45.017a1.326 1.326 0 01-.972-.3l.002.001a1.793 1.793 0 01-.28-1.43l-.001.011a1.885 1.885 0 00-.077-.936l.003.014a1.868 1.868 0 00-.804-.415l-.013-.003c-.504-.175-1.027-.357-1.212-.807a1.788 1.788 0 01.287-1.414l-.004.005a1.88 1.88 0 00.282-.892v-.004c-.039-.2-.33-.459-.587-.688C.414 11.863 0 11.493 0 11c0-.494.414-.863.815-1.222.257-.229.548-.49.587-.687a1.89 1.89 0 00-.29-.9l.005.008a1.79 1.79 0 01-.28-1.422l-.001.012c.187-.45.708-.633 1.212-.807.317-.074.593-.22.82-.42l-.002.002c.103-.3.127-.621.071-.934l.002.011a1.805 1.805 0 01.284-1.425l-.004.005a1.33 1.33 0 01.976-.297h-.006c.147 0 .298.009.45.017.14.008.282.016.415.016a.964.964 0 00.513-.094l-.006.003c.197-.226.343-.5.415-.805l.003-.013c.175-.504.357-1.027.806-1.212a.859.859 0 01.331-.064h.01c.399.041.762.165 1.082.354l-.013-.007c.265.174.572.273.888.285h.004c.199-.038.458-.33.687-.586C10.136.414 10.506 0 11 0s.864.414 1.222.816c.23.257.49.548.687.587.32-.015.63-.115.899-.29l-.008.004c.324-.19.685-.308 1.06-.345l.01-.001h.01a.88.88 0 01.336.067L15.21.836c.45.187.633.708.807 1.212.074.317.22.592.419.82l-.002-.002a.956.956 0 00.511.09h-.003c.134 0 .275-.008.416-.015.152-.009.304-.017.45-.017a1.33 1.33 0 01.973.3l-.002-.001a1.796 1.796 0 01.279 1.43l.001-.011c-.053.314-.027.636.078.936l-.003-.013c.224.198.5.344.804.414l.013.003c.504.176 1.027.358 1.212.807a1.798 1.798 0 01-.286 1.414l.004-.005a1.87 1.87 0 00-.284.886v.006c.038.199.33.458.586.687.404.36.819.73.819 1.224s-.415.864-.816 1.223c-.257.229-.548.488-.587.687.02.333.124.638.29.9l-.005-.008a1.787 1.787 0 01.28 1.421v-.012c-.185.451-.707.633-1.21.807-.305.07-.586.214-.82.42l.001-.002c-.103.3-.128.621-.071.934l-.002-.011a1.805 1.805 0 01-.284 1.424l.004-.005a1.33 1.33 0 01-.975.299h.006c-.147 0-.298-.009-.45-.017a7.222 7.222 0 00-.416-.016.958.958 0 00-.512.094l.005-.003c-.201.23-.344.507-.414.805l-.003.013c-.176.504-.357 1.027-.806 1.212a.858.858 0 01-.331.064h-.01a2.638 2.638 0 01-1.081-.355l.012.007a1.732 1.732 0 00-.888-.285h-.004c-.199.039-.458.33-.688.587-.362.402-.731.816-1.226.816s-.864-.414-1.223-.815zM13.015 6.7L8.54 14.829a.152.152 0 00.133.225h.777a.149.149 0 00.132-.078l4.467-8.13a.152.152 0 00-.133-.226h-.77a.152.152 0 00-.132.079zm-.646 4.17a1.027 1.027 0 00-.372.79v2.202c0 .315.145.597.372.782l.001.002a1.367 1.367 0 001.746-.002l-.002.002c.23-.187.374-.468.374-.783v-2.2a1.03 1.03 0 00-.365-.788h-.002a1.264 1.264 0 00-.846-.324h-.028.002-.029c-.313 0-.616.114-.85.32h.001l-.002-.001zM8.48 6.922a1.026 1.026 0 00-.372.79v2.2c0 .317.144.6.371.786l.002.002a1.35 1.35 0 001.749-.002l-.002.002c.231-.188.377-.47.377-.789V7.717a1.02 1.02 0 00-.371-.79l-.002-.002a1.352 1.352 0 00-1.755.001l.002-.002.001-.002zm4.563 7.059a.167.167 0 01-.063-.131v-2.201c0-.053.025-.1.062-.13a.262.262 0 01.172-.064h.012-.001.01c.064 0 .125.022.173.063a.169.169 0 01.063.13v2.202a.168.168 0 01-.062.13.29.29 0 01-.183.064.29.29 0 01-.184-.065l.001.002zm-3.886-3.947a.17.17 0 01-.064-.131v-2.2c0-.053.025-.1.063-.131a.29.29 0 01.183-.064.29.29 0 01.184.065.168.168 0 01.063.13v2.202a.17.17 0 01-.063.13.29.29 0 01-.183.065.29.29 0 01-.184-.065v-.001z" fill="#EA5400"/></svg>