<svg width="23" height="22" fill="none" xmlns="http://www.w3.org/2000/svg"><path d="M10.102 7.079v7.842h2.24V7.08h-2.24z" fill="#fff"/><path fill-rule="evenodd" clip-rule="evenodd" d="M15.704 12.68h1.68a2.801 2.801 0 000-5.601h-3.921v7.842h2.24v-2.24zm0-3.36v1.12h1.68a.56.56 0 000-1.12h-1.68z" fill="#fff"/><path fill-rule="evenodd" clip-rule="evenodd" d="M15.704 9.32v1.12h1.68a.56.56 0 000-1.12h-1.68z" fill="#fff"/><path fill-rule="evenodd" clip-rule="evenodd" d="M1.139.917h20.167a1.12 1.12 0 011.12 1.12v17.926a1.12 1.12 0 01-1.12 1.12H1.139a1.12 1.12 0 01-1.12-1.12V2.037a1.12 1.12 0 011.12-1.12zm8.963 14.004V7.08h2.24v7.842h-2.24zM7.414 7.08h2.369l-2.926 7.8h-2.24L1.69 7.079h2.37l1.677 4.608 1.677-4.608zm9.97 5.601h-1.68v2.241h-2.241V7.08h3.921a2.801 2.801 0 010 5.601z" fill="#fff"/><path d="M9.783 7.079H7.414l-1.677 4.608L4.06 7.079H1.69l2.926 7.802h2.24l2.926-7.802z" fill="#fff"/><path d="M1.139.917h20.166a1.12 1.12 0 011.12 1.12v17.926a1.12 1.12 0 01-1.12 1.12H1.14a1.12 1.12 0 01-1.12-1.12V2.037A1.12 1.12 0 011.14.917zm8.963 6.162v7.842h2.24V7.08h-2.24zm-.32 0H7.415l-1.677 4.608L4.06 7.079H1.69l2.925 7.802h2.241l2.926-7.802zm5.922 5.601h1.68a2.8 2.8 0 100-5.601h-3.921v7.842h2.24v-2.24zm0-2.24V9.32h1.68a.56.56 0 110 1.12h-1.68z" fill="#FFA617"/></svg>