<svg width="100" height="100" viewBox="0 0 100 100" fill="none" xmlns="http://www.w3.org/2000/svg">
<path d="M100 50C100 77.6133 77.6133 100 50 100C38.4688 100 27.8496 96.0957 19.3926 89.5391C13.6328 85.0742 20.5896 78.3852 17.2322 71.8539C16.824 71.0648 4.72461 71.2578 4.35938 70.4453V70.4434C1.55859 64.2012 0 57.2832 0 50C0 22.3867 22.3867 0 50 0C77.6133 0 100 22.3867 100 50Z" fill="#A9D9F7"/>
<path d="M36.4592 77.0929C43.2437 77.0929 48.7436 71.593 48.7436 64.8085C48.7436 58.0241 43.2437 52.5242 36.4592 52.5242C29.6747 52.5242 24.1748 58.0241 24.1748 64.8085C24.1748 71.593 29.6747 77.0929 36.4592 77.0929Z" fill="#FFE04A"/>
<path d="M37.9248 77.0029C37.4443 77.0615 36.9561 77.0908 36.46 77.0908C29.6748 77.0908 24.1748 71.5908 24.1748 64.8076C24.1748 58.0225 29.6748 52.5225 36.46 52.5225C36.9561 52.5225 37.4443 52.5518 37.9248 52.6104C31.8291 53.333 27.1045 58.5186 27.1045 64.8076C27.1045 71.0967 31.8291 76.2803 37.9248 77.0029Z" fill="#FFBF4D"/>
<path d="M35.6133 61.1143L33.6208 68.52C33.5855 68.6648 33.5148 68.7829 33.4089 68.8743C33.3029 68.9581 33.1828 69 33.0485 69H31.5648C31.4235 69 31.2998 68.9581 31.1938 68.8743C31.0949 68.7829 31.0278 68.6648 30.9925 68.52L29 61.1143H30.6639L31.9993 66.8057C32.0276 66.9505 32.0558 67.099 32.0841 67.2514C32.1123 67.3962 32.1406 67.541 32.1689 67.6857H32.4444C32.4939 67.3886 32.5539 67.0914 32.6246 66.7943L33.9494 61.1143H35.6133Z" fill="white"/>
<path d="M38.0368 61.1143V69H36.4259V61.1143H38.0368Z" fill="white"/>
<path d="M42.3081 61C42.9863 61 43.5198 61.0762 43.9084 61.2286C44.3041 61.381 44.5831 61.6438 44.7456 62.0171C44.9152 62.3905 45 62.9124 45 63.5829C45 64.2533 44.9187 64.7752 44.7562 65.1486C44.6008 65.5219 44.3394 65.781 43.972 65.9257C43.6116 66.0705 43.1276 66.1467 42.52 66.1543C42.2798 66.1467 42.0396 66.1352 41.7993 66.12C41.5662 66.1048 41.3401 66.0857 41.1211 66.0629V69H39.5101V61.1143C39.7998 61.0838 40.0754 61.061 40.3368 61.0457C40.5982 61.0305 40.8808 61.019 41.1846 61.0114C41.4955 61.0038 41.87 61 42.3081 61ZM42.2763 62.3143C42.0643 62.3143 41.8594 62.3143 41.6616 62.3143C41.4708 62.3143 41.2906 62.3143 41.1211 62.3143V64.84H42.2763C42.7002 64.84 42.9899 64.7562 43.1453 64.5886C43.3008 64.421 43.3785 64.0857 43.3785 63.5829C43.3785 63.08 43.3008 62.7448 43.1453 62.5771C42.9899 62.4019 42.7002 62.3143 42.2763 62.3143Z" fill="white"/>
<path d="M25.582 78.8696C25.582 83.436 23.0898 87.4204 19.3926 89.5395C17.8555 88.3481 16.3887 87.0688 15.0019 85.7075C11.9394 82.7075 9.26171 79.3149 7.05077 75.6118C6.05663 73.9497 5.1582 72.2251 4.35937 70.4458C6.59765 68.0688 9.77343 66.5864 13.2969 66.5864C20.082 66.5864 25.582 72.0864 25.582 78.8696Z" fill="#FFE04A"/>
<mask id="mask0" mask-type="alpha" maskUnits="userSpaceOnUse" x="4" y="66" width="22" height="24">
<path d="M25.582 78.8706C25.582 83.437 23.0898 87.4214 19.3926 89.5405C17.8555 88.3491 16.3887 87.0698 15.0019 85.7085C11.9394 82.7085 9.26171 79.3159 7.05077 75.6128C6.05663 73.9507 5.1582 72.2261 4.35937 70.4468C6.59765 68.0698 9.77343 66.5874 13.2969 66.5874C20.082 66.5874 25.582 72.0874 25.582 78.8706Z" fill="#FFE04A"/>
</mask>
<g mask="url(#mask0)">
<path d="M19.5024 75.5169H13.0016V73.4016C13.0016 72.3075 13.7239 71.3593 14.7352 71.1404C16.1075 70.9216 17.3355 71.9428 17.3355 73.3287C17.3355 73.7663 17.6966 74.0581 18.0578 74.0581C18.4189 74.0581 18.7801 73.7663 18.7801 73.3287C18.7801 71.2134 16.9743 69.4628 14.8074 69.6816C12.9294 69.9004 11.557 71.5781 11.557 73.4745V75.5169H10.8347C10.4735 75.5169 10.1124 75.8087 10.1124 76.2463V83.5404C10.1124 83.9051 10.4735 84.2698 10.8347 84.2698H19.5024C19.9358 84.2698 20.2247 83.9051 20.2247 83.5404V76.2463C20.2247 75.8087 19.9358 75.5169 19.5024 75.5169ZM15.8908 80.4039V81.3522C15.8908 81.7898 15.6019 82.0816 15.1685 82.0816C14.7352 82.0816 14.4462 81.7898 14.4462 81.3522V80.4039C14.0128 80.1122 13.7239 79.6745 13.7239 79.1639C13.7239 78.2157 14.5907 77.5592 15.5297 77.7781C16.0353 77.9239 16.4687 78.3616 16.6132 78.8722C16.7576 79.5287 16.3965 80.1122 15.8908 80.4039Z" fill="#128F77"/>
</g>
<path d="M14.7637 66.6719C10.7871 67.1426 7.39452 69.5137 5.51757 72.8496C5.10937 72.0605 4.7246 71.2578 4.35937 70.4453V70.4434C6.59765 68.0664 9.77538 66.584 13.2988 66.584C13.7949 66.584 14.2832 66.6133 14.7637 66.6719Z" fill="#FFBF4D"/>
<path d="M58.5924 58.955C65.3769 58.955 70.8768 53.4551 70.8768 46.6706C70.8768 39.8861 65.3769 34.3862 58.5924 34.3862C51.8079 34.3862 46.308 39.8861 46.308 46.6706C46.308 53.4551 51.8079 58.955 58.5924 58.955Z" fill="#FFE04A"/>
<path d="M60.058 58.865C59.5775 58.9236 59.0893 58.9529 58.5932 58.9529C51.808 58.9529 46.308 53.4529 46.308 46.6697C46.308 39.8845 51.808 34.3845 58.5932 34.3845C59.0893 34.3845 59.5775 34.4138 60.058 34.4724C53.9623 35.1951 49.2377 40.3806 49.2377 46.6697C49.2377 52.9587 53.9623 58.1423 60.058 58.865Z" fill="#FFBF4D"/>
<path d="M58.5924 53.716C62.4841 53.716 65.6389 50.5612 65.6389 46.6695C65.6389 42.7779 62.4841 39.623 58.5924 39.623C54.7007 39.623 51.5459 42.7779 51.5459 46.6695C51.5459 50.5612 54.7007 53.716 58.5924 53.716Z" fill="#FFBF4D"/>
<path d="M59.2999 55.6373C59.1478 55.4669 58.975 55.2733 58.8435 55.2478C58.6311 55.2568 58.425 55.323 58.2471 55.4395L58.2514 55.4364C58.0366 55.5628 57.797 55.6412 57.5491 55.6665L57.5418 55.6671H57.5357C57.4591 55.6672 57.3831 55.6521 57.3124 55.6227L57.316 55.6239C57.0172 55.4997 56.8961 55.1541 56.7805 54.8194C56.7341 54.6178 56.6386 54.4309 56.5024 54.2753L56.5036 54.2765C56.3983 54.2254 56.2811 54.2042 56.1646 54.2151H56.167C56.0782 54.2151 55.9845 54.2205 55.8908 54.226C55.7897 54.2321 55.6887 54.237 55.5926 54.237C55.4771 54.2479 55.3606 54.2358 55.2498 54.2016C55.139 54.1673 55.0361 54.1115 54.9469 54.0374L54.9481 54.0386C54.8523 53.9021 54.7863 53.747 54.7544 53.5833C54.7224 53.4197 54.7252 53.2511 54.7625 53.0886L54.7613 53.0965C54.7969 52.8884 54.7793 52.6747 54.7101 52.4752L54.7126 52.4843C54.5598 52.35 54.3763 52.2553 54.1783 52.2086L54.1697 52.2068C53.835 52.0906 53.4881 51.9701 53.3652 51.6713C53.33 51.5101 53.3287 51.3434 53.3615 51.1817C53.3943 51.02 53.4604 50.8669 53.5557 50.7322L53.5533 50.7359C53.6644 50.5574 53.7287 50.3537 53.7401 50.1438V50.1407C53.7145 50.0087 53.521 49.8364 53.3506 49.6843C53.0841 49.4482 52.809 49.2029 52.809 48.8749C52.809 48.5469 53.0841 48.3016 53.35 48.0637C53.5204 47.9116 53.7139 47.7387 53.7395 47.6073C53.7271 47.3953 53.6612 47.1898 53.5478 47.0103L53.5508 47.0151C53.4558 46.8794 53.3902 46.7254 53.3583 46.5628C53.3263 46.4003 53.3287 46.2328 53.3652 46.0713L53.364 46.0792C53.4881 45.7804 53.8338 45.6593 54.1685 45.5436C54.3791 45.4943 54.5623 45.3976 54.7126 45.2649L54.7114 45.2661C54.78 45.0669 54.7963 44.8534 54.7588 44.646L54.76 44.6533C54.7242 44.4911 54.7224 44.3232 54.7549 44.1603C54.7874 43.9974 54.8534 43.843 54.9487 43.707L54.9463 43.7106C55.0359 43.6368 55.1392 43.5813 55.2504 43.5475C55.3615 43.5137 55.4782 43.5021 55.5938 43.5135H55.5901C55.6875 43.5135 55.7879 43.5189 55.8883 43.5244C55.982 43.5299 56.0758 43.5354 56.1646 43.5354C56.2816 43.5461 56.3993 43.5244 56.5048 43.4727L56.5011 43.4745C56.632 43.3248 56.7287 43.1422 56.7762 42.9402L56.778 42.9317C56.8949 42.597 57.0154 42.2501 57.3136 42.1272C57.3833 42.0986 57.4579 42.0841 57.5333 42.0846H57.54C57.8053 42.1119 58.0457 42.1941 58.2581 42.3195L58.2495 42.3152C58.4252 42.4307 58.6291 42.4962 58.8392 42.5045H58.8417C58.9737 42.4789 59.146 42.2854 59.2981 42.115C59.5379 41.8478 59.7837 41.5728 60.1118 41.5728C60.4398 41.5728 60.685 41.8478 60.923 42.1144C61.0751 42.2848 61.2479 42.4783 61.3794 42.5039C61.5918 42.4941 61.7977 42.4277 61.9758 42.3116L61.9709 42.3146C62.1859 42.1883 62.4257 42.11 62.6738 42.0852L62.6811 42.0846H62.6872C62.7663 42.0846 62.8418 42.1004 62.9105 42.129L62.9069 42.1278C63.2057 42.2519 63.3268 42.5976 63.4424 42.9323C63.4917 43.1428 63.5885 43.3254 63.7205 43.4763L63.7193 43.4751C63.8248 43.5262 63.9423 43.547 64.0589 43.5354H64.0565C64.1453 43.5354 64.239 43.5299 64.3328 43.525C64.4338 43.5195 64.5348 43.5141 64.6309 43.5141C64.7465 43.5033 64.8631 43.5153 64.974 43.5496C65.0848 43.5838 65.1879 43.6396 65.2772 43.7137L65.276 43.7125C65.3715 43.8491 65.4372 44.0043 65.4691 44.1679C65.501 44.3315 65.4982 44.4999 65.461 44.6624L65.4622 44.6545C65.4265 44.8627 65.4443 45.0765 65.514 45.2759L65.5115 45.2673C65.6606 45.3988 65.8438 45.4956 66.0459 45.5424L66.0544 45.5442C66.3891 45.6611 66.736 45.7816 66.8589 46.0798C66.8938 46.2409 66.895 46.4075 66.8623 46.5692C66.8296 46.7308 66.7638 46.8839 66.669 47.0188L66.6715 47.0151C66.56 47.1923 66.4951 47.3947 66.4828 47.6036V47.6073C66.5084 47.7393 66.7019 47.9116 66.8723 48.0637C67.1407 48.3029 67.4157 48.5481 67.4157 48.8761C67.4157 49.2041 67.1407 49.45 66.8741 49.6879C66.7037 49.8401 66.5102 50.0123 66.4846 50.1444C66.498 50.3653 66.5668 50.5679 66.6763 50.742L66.6733 50.7365C66.7683 50.8721 66.8339 51.0261 66.8659 51.1885C66.8979 51.351 66.8955 51.5183 66.8589 51.6798L66.8601 51.6719C66.7366 51.9713 66.3903 52.0918 66.0556 52.2074C65.8539 52.2538 65.667 52.3495 65.5115 52.4861L65.5128 52.4849C65.4442 52.6842 65.4278 52.8977 65.4653 53.105L65.4641 53.0977C65.4999 53.2598 65.5016 53.4276 65.4691 53.5904C65.4366 53.7532 65.3707 53.9075 65.2754 54.0434L65.2779 54.0398C65.1884 54.1138 65.0852 54.1694 64.9742 54.2035C64.8632 54.2375 64.7465 54.2493 64.6309 54.2382H64.6346C64.5372 54.2382 64.4368 54.2327 64.3364 54.2272C64.2444 54.2209 64.1523 54.2173 64.0601 54.2163C63.9431 54.2053 63.8254 54.227 63.7199 54.279L63.7236 54.2771C63.5897 54.4301 63.4952 54.6136 63.4485 54.8114L63.4467 54.82C63.3298 55.1547 63.2093 55.5016 62.9111 55.6245C62.8415 55.6531 62.7668 55.6675 62.6915 55.6671H62.6848C62.4311 55.6418 62.1866 55.5614 61.9673 55.4316L61.9752 55.4358C61.7996 55.3202 61.5956 55.255 61.3855 55.2472H61.383C61.251 55.2727 61.0788 55.4663 60.9266 55.6367C60.6862 55.9032 60.441 56.1783 60.1124 56.1783C59.7837 56.1783 59.5385 55.9032 59.2999 55.6373ZM61.4494 46.0207L58.4796 51.4175C58.4711 51.4328 58.4668 51.4501 58.4671 51.4677C58.4674 51.4852 58.4722 51.5024 58.4811 51.5175C58.49 51.5326 58.5027 51.5451 58.5179 51.5538C58.5331 51.5625 58.5503 51.5671 58.5678 51.5672H59.0833C59.1012 51.5672 59.1188 51.5624 59.1342 51.5533C59.1496 51.5442 59.1623 51.5312 59.1709 51.5155L62.1364 46.1175C62.1449 46.1021 62.1492 46.0848 62.1489 46.0673C62.1487 46.0498 62.1439 46.0326 62.135 46.0175C62.1261 46.0024 62.1134 45.9899 62.0982 45.9812C62.083 45.9725 62.0657 45.9678 62.0482 45.9678H61.5376C61.5196 45.9678 61.5019 45.9727 61.4864 45.9819C61.4708 45.9911 61.4581 46.0049 61.4494 46.0207ZM61.021 48.7891C60.9436 48.853 60.8814 48.9333 60.8387 49.0241C60.7959 49.1148 60.7738 49.214 60.7739 49.3143V50.7755C60.7739 50.9848 60.87 51.1716 61.0203 51.2946L61.0216 51.2958C61.1774 51.426 61.3794 51.5045 61.6003 51.5045C61.8212 51.5045 62.0233 51.4254 62.1803 51.2946L62.179 51.2958C62.3312 51.1722 62.4273 50.9854 62.4273 50.7761V49.3167V49.3155C62.4273 49.1062 62.333 48.9181 62.1851 48.7928L62.1839 48.7921C62.0297 48.6536 61.8296 48.577 61.6222 48.5773H61.6033H61.6046H61.5857C61.3778 48.577 61.1769 48.6528 61.021 48.7903L61.0222 48.7897L61.021 48.7891ZM58.4382 46.168C58.3609 46.2319 58.2986 46.3122 58.2559 46.403C58.2132 46.4938 58.1911 46.5929 58.1911 46.6932V48.1538C58.1911 48.3637 58.2867 48.5518 58.4376 48.6753L58.4388 48.6765C58.5946 48.8086 58.7973 48.8883 59.0188 48.8883C59.2403 48.8883 59.4436 48.808 59.6 48.6753L59.5987 48.6765C59.7521 48.5518 59.8489 48.3637 59.8489 48.1525V46.6956C59.8489 46.4845 59.7533 46.2964 59.6024 46.1711L59.6012 46.1705C59.4387 46.032 59.2321 45.9561 59.0187 45.9562C58.8052 45.9563 58.5987 46.0325 58.4364 46.1711L58.4376 46.1698L58.4382 46.168ZM61.4676 50.8546C61.4545 50.8441 61.444 50.8309 61.4367 50.8158C61.4294 50.8008 61.4257 50.7843 61.4256 50.7675V49.3088V49.3064C61.4256 49.2711 61.4421 49.24 61.467 49.22C61.4986 49.1926 61.539 49.1774 61.5808 49.1774H61.5887H61.5954C61.6373 49.1773 61.6779 49.1922 61.7098 49.2194C61.7228 49.2297 61.7334 49.2428 61.7406 49.2578C61.7479 49.2728 61.7517 49.2891 61.7518 49.3058V50.7675C61.7518 50.7841 61.7481 50.8005 61.741 50.8155C61.7338 50.8304 61.7234 50.8436 61.7105 50.854C61.6776 50.8807 61.635 50.8966 61.5887 50.8966C61.5425 50.8966 61.4999 50.8807 61.4664 50.8533L61.4676 50.8546ZM58.8873 48.2341C58.8743 48.2236 58.8638 48.2104 58.8565 48.1953C58.8493 48.1803 58.8454 48.1638 58.8453 48.1471V46.6883V46.6865C58.8453 46.6512 58.8618 46.6202 58.8867 46.5995C58.9196 46.5727 58.9622 46.5569 59.0084 46.5569C59.0547 46.5569 59.0973 46.5727 59.1308 46.6001C59.1438 46.6105 59.1538 46.6238 59.1611 46.6388C59.1683 46.6539 59.1721 46.6704 59.1721 46.6871V48.1483C59.1721 48.1649 59.1684 48.1814 59.1612 48.1964C59.1541 48.2115 59.1437 48.2248 59.1308 48.2353C59.0979 48.2621 59.0553 48.2779 59.009 48.2779C58.9628 48.2779 58.9202 48.2621 58.8867 48.2347L58.8873 48.2341Z" fill="white"/>
<path fill-rule="evenodd" clip-rule="evenodd" d="M58.4382 46.168C58.3609 46.2319 58.2986 46.3122 58.2559 46.403C58.2132 46.4938 58.1911 46.5929 58.1911 46.6932V48.1538C58.1911 48.3637 58.2867 48.5518 58.4376 48.6753L58.4388 48.6765C58.5946 48.8086 58.7973 48.8883 59.0188 48.8883C59.2403 48.8883 59.4436 48.808 59.6 48.6753L59.5987 48.6765C59.7521 48.5518 59.8489 48.3637 59.8489 48.1525V46.6956C59.8489 46.4845 59.7533 46.2964 59.6024 46.1711L59.6012 46.1705C59.4387 46.032 59.2321 45.9561 59.0187 45.9562C58.8052 45.9563 58.5987 46.0325 58.4364 46.1711L58.4376 46.1698L58.4382 46.168ZM58.8565 48.1953C58.8638 48.2104 58.8743 48.2236 58.8873 48.2341L58.8867 48.2347C58.9202 48.2621 58.9628 48.2779 59.009 48.2779C59.0553 48.2779 59.0979 48.2621 59.1308 48.2353C59.1437 48.2248 59.1541 48.2115 59.1612 48.1964C59.1684 48.1814 59.1721 48.1649 59.1721 48.1483V46.6871C59.1721 46.6704 59.1683 46.6539 59.1611 46.6388C59.1538 46.6238 59.1438 46.6105 59.1308 46.6001C59.0973 46.5727 59.0547 46.5569 59.0084 46.5569C58.9622 46.5569 58.9196 46.5727 58.8867 46.5995C58.8618 46.6202 58.8453 46.6512 58.8453 46.6865V46.6883V48.1471C58.8454 48.1638 58.8493 48.1803 58.8565 48.1953Z" fill="white"/>
<path d="M61.4494 46.0207L58.4796 51.4175C58.4711 51.4328 58.4668 51.4501 58.4671 51.4677C58.4674 51.4852 58.4722 51.5024 58.4811 51.5175C58.49 51.5326 58.5027 51.5451 58.5179 51.5538C58.5331 51.5625 58.5503 51.5671 58.5678 51.5672H59.0833C59.1012 51.5672 59.1188 51.5624 59.1342 51.5533C59.1496 51.5442 59.1623 51.5312 59.1709 51.5155L62.1364 46.1175C62.1449 46.1021 62.1492 46.0848 62.1489 46.0673C62.1487 46.0498 62.1439 46.0326 62.135 46.0175C62.1261 46.0024 62.1134 45.9899 62.0982 45.9812C62.083 45.9725 62.0657 45.9678 62.0482 45.9678H61.5376C61.5196 45.9678 61.5019 45.9727 61.4864 45.9819C61.4708 45.9911 61.4581 46.0049 61.4494 46.0207Z" fill="white"/>
<path fill-rule="evenodd" clip-rule="evenodd" d="M61.021 48.7891C60.9436 48.853 60.8814 48.9333 60.8387 49.0241C60.7959 49.1148 60.7738 49.214 60.7739 49.3143V50.7755C60.7739 50.9848 60.87 51.1716 61.0203 51.2946L61.0216 51.2958C61.1774 51.426 61.3794 51.5045 61.6003 51.5045C61.8212 51.5045 62.0233 51.4254 62.1803 51.2946L62.179 51.2958C62.3312 51.1722 62.4273 50.9854 62.4273 50.7761V49.3167V49.3155C62.4273 49.1062 62.333 48.9181 62.1851 48.7928L62.1839 48.7921C62.0297 48.6536 61.8296 48.577 61.6222 48.5773H61.6046H61.6033H61.5857C61.3782 48.577 61.178 48.6527 61.0222 48.7897L61.021 48.7891ZM61.4367 50.8158C61.444 50.8309 61.4545 50.8441 61.4676 50.8546L61.4664 50.8533C61.4999 50.8807 61.5425 50.8966 61.5887 50.8966C61.635 50.8966 61.6776 50.8807 61.7105 50.854C61.7234 50.8436 61.7338 50.8304 61.741 50.8155C61.7481 50.8005 61.7518 50.7841 61.7518 50.7675V49.3058C61.7517 49.2891 61.7479 49.2728 61.7406 49.2578C61.7334 49.2428 61.7228 49.2297 61.7098 49.2194C61.6779 49.1922 61.6373 49.1773 61.5954 49.1774H61.5887H61.5808C61.539 49.1774 61.4986 49.1926 61.467 49.22C61.4421 49.24 61.4256 49.2711 61.4256 49.3064V49.3088V50.7675C61.4257 50.7843 61.4294 50.8008 61.4367 50.8158Z" fill="white"/>
<path d="M59.2999 55.6373C59.1478 55.4669 58.975 55.2733 58.8435 55.2478C58.6311 55.2568 58.425 55.323 58.2471 55.4395L58.2514 55.4364C58.0366 55.5628 57.797 55.6412 57.5491 55.6665L57.5418 55.6671H57.5357C57.4591 55.6672 57.3831 55.6521 57.3124 55.6227L57.316 55.6239C57.0172 55.4997 56.8961 55.1541 56.7805 54.8194C56.7341 54.6178 56.6386 54.4309 56.5024 54.2753L56.5036 54.2765C56.3983 54.2254 56.2811 54.2042 56.1646 54.2151H56.167C56.0782 54.2151 55.9845 54.2205 55.8908 54.226C55.7897 54.2321 55.6887 54.237 55.5926 54.237C55.4771 54.2479 55.3606 54.2358 55.2498 54.2016C55.139 54.1673 55.0361 54.1115 54.9469 54.0374L54.9481 54.0386C54.8523 53.9021 54.7863 53.747 54.7544 53.5833C54.7224 53.4197 54.7252 53.2511 54.7625 53.0886L54.7613 53.0965C54.7969 52.8884 54.7793 52.6747 54.7101 52.4752L54.7126 52.4843C54.5598 52.35 54.3763 52.2553 54.1783 52.2086L54.1697 52.2068C53.835 52.0906 53.4881 51.9701 53.3652 51.6713C53.33 51.5101 53.3287 51.3434 53.3615 51.1817C53.3943 51.02 53.4604 50.8669 53.5557 50.7322L53.5533 50.7359C53.6644 50.5574 53.7287 50.3537 53.7401 50.1438V50.1407C53.7145 50.0087 53.521 49.8364 53.3506 49.6843C53.0841 49.4482 52.809 49.2029 52.809 48.8749C52.809 48.5469 53.0841 48.3016 53.35 48.0637C53.5204 47.9116 53.7139 47.7387 53.7395 47.6073C53.7271 47.3953 53.6612 47.1898 53.5478 47.0103L53.5508 47.0151C53.4558 46.8794 53.3902 46.7254 53.3583 46.5628C53.3263 46.4003 53.3287 46.2328 53.3652 46.0713L53.364 46.0792C53.4881 45.7804 53.8338 45.6593 54.1685 45.5436C54.3791 45.4943 54.5623 45.3976 54.7126 45.2649L54.7114 45.2661C54.78 45.0669 54.7963 44.8534 54.7588 44.646L54.76 44.6533C54.7242 44.4911 54.7224 44.3232 54.7549 44.1603C54.7874 43.9974 54.8534 43.843 54.9487 43.707L54.9463 43.7106C55.0359 43.6368 55.1392 43.5813 55.2504 43.5475C55.3615 43.5137 55.4782 43.5021 55.5938 43.5135H55.5901C55.6875 43.5135 55.7879 43.5189 55.8883 43.5244C55.982 43.5299 56.0758 43.5354 56.1646 43.5354C56.2816 43.5461 56.3993 43.5244 56.5048 43.4727L56.5011 43.4745C56.632 43.3248 56.7287 43.1422 56.7762 42.9402L56.778 42.9317C56.8949 42.597 57.0154 42.2501 57.3136 42.1272C57.3833 42.0986 57.4579 42.0841 57.5333 42.0846H57.54H57.5394C57.8047 42.1119 58.0457 42.1941 58.2581 42.3195L58.2495 42.3152C58.4252 42.4307 58.6291 42.4962 58.8392 42.5045H58.8417C58.9737 42.4789 59.146 42.2854 59.2981 42.115C59.5379 41.8478 59.7837 41.5728 60.1118 41.5728C60.4398 41.5728 60.685 41.8478 60.923 42.1144C61.0751 42.2848 61.2479 42.4783 61.3794 42.5039C61.5918 42.4941 61.7977 42.4277 61.9758 42.3116L61.9709 42.3146C62.1859 42.1883 62.4257 42.11 62.6738 42.0852L62.6811 42.0846H62.6872C62.7663 42.0846 62.8418 42.1004 62.9105 42.129L62.9069 42.1278C63.2057 42.2519 63.3268 42.5976 63.4424 42.9323C63.4917 43.1428 63.5885 43.3254 63.7205 43.4763L63.7193 43.4751C63.8248 43.5262 63.9423 43.547 64.0589 43.5354H64.0565C64.1453 43.5354 64.239 43.5299 64.3328 43.525C64.4338 43.5195 64.5348 43.5141 64.6309 43.5141C64.7465 43.5033 64.8631 43.5153 64.974 43.5496C65.0848 43.5838 65.1879 43.6396 65.2772 43.7137L65.276 43.7125C65.3715 43.8491 65.4372 44.0043 65.4691 44.1679C65.501 44.3315 65.4982 44.4999 65.461 44.6624L65.4622 44.6545C65.4265 44.8627 65.4443 45.0765 65.514 45.2759L65.5115 45.2673C65.6606 45.3988 65.8438 45.4956 66.0459 45.5424L66.0544 45.5442C66.3891 45.6611 66.736 45.7816 66.8589 46.0798C66.8938 46.2409 66.8949 46.4075 66.8623 46.5692C66.8296 46.7308 66.7638 46.8839 66.669 47.0188L66.6715 47.0151C66.56 47.1923 66.4951 47.3947 66.4828 47.6036V47.6073C66.5084 47.7393 66.7019 47.9116 66.8723 48.0637C67.1407 48.3029 67.4157 48.5481 67.4157 48.8761C67.4157 49.2041 67.1407 49.45 66.8741 49.6879C66.7037 49.8401 66.5102 50.0123 66.4846 50.1444C66.498 50.3653 66.5668 50.5679 66.6763 50.742L66.6733 50.7365C66.7683 50.8721 66.8339 51.0261 66.8659 51.1885C66.8979 51.351 66.8955 51.5183 66.8589 51.6798L66.8601 51.6719C66.7366 51.9713 66.3903 52.0918 66.0556 52.2074C65.8539 52.2538 65.667 52.3495 65.5115 52.4861L65.5128 52.4849C65.4441 52.6842 65.4278 52.8977 65.4653 53.105L65.4641 53.0977C65.4999 53.2598 65.5016 53.4276 65.4691 53.5904C65.4366 53.7532 65.3707 53.9075 65.2754 54.0434L65.2779 54.0398C65.1884 54.1138 65.0852 54.1694 64.9742 54.2035C64.8632 54.2375 64.7465 54.2493 64.6309 54.2382H64.6346C64.5372 54.2382 64.4368 54.2327 64.3364 54.2272C64.2444 54.2209 64.1523 54.2173 64.0601 54.2163C63.9431 54.2053 63.8254 54.227 63.7199 54.279L63.7236 54.2771C63.5897 54.4301 63.4952 54.6136 63.4485 54.8114L63.4467 54.82C63.3298 55.1547 63.2093 55.5016 62.9111 55.6245C62.8415 55.6531 62.7668 55.6675 62.6915 55.6671H62.6848H62.6854C62.4317 55.6418 62.1866 55.5614 61.9673 55.4316L61.9752 55.4358C61.7996 55.3202 61.5956 55.255 61.3855 55.2472H61.383C61.251 55.2727 61.0788 55.4663 60.9266 55.6367C60.6862 55.9032 60.441 56.1783 60.1124 56.1783C59.7837 56.1783 59.5391 55.9032 59.3005 55.6373H59.2999ZM61.4494 46.0207L58.4796 51.4175C58.4711 51.4328 58.4668 51.4501 58.4671 51.4677C58.4674 51.4852 58.4722 51.5024 58.4811 51.5175C58.49 51.5326 58.5027 51.5451 58.5179 51.5538C58.5331 51.5625 58.5503 51.5671 58.5678 51.5672H59.0833C59.1012 51.5672 59.1188 51.5624 59.1342 51.5533C59.1496 51.5442 59.1623 51.5312 59.1709 51.5155V51.5149L62.1364 46.1175C62.1449 46.1021 62.1492 46.0848 62.1489 46.0673C62.1487 46.0498 62.1439 46.0326 62.135 46.0175C62.1261 46.0024 62.1134 45.9899 62.0982 45.9812C62.083 45.9725 62.0657 45.9678 62.0482 45.9678H61.5376C61.5196 45.9678 61.5019 45.9727 61.4864 45.9819C61.4708 45.9911 61.4581 46.0043 61.4494 46.0201V46.0207ZM61.0209 48.7891C60.9436 48.853 60.8814 48.9333 60.8387 49.0241C60.7959 49.1148 60.7738 49.214 60.7739 49.3143V50.7755C60.7739 50.9848 60.87 51.1716 61.0203 51.2946L61.0216 51.2958C61.1774 51.426 61.3794 51.5045 61.6003 51.5045C61.8212 51.5045 62.0233 51.4254 62.1803 51.2946L62.179 51.2958C62.3312 51.1722 62.4273 50.9854 62.4273 50.7761V49.3167V49.3155C62.4273 49.1062 62.333 48.9181 62.1851 48.7928L62.1839 48.7921C62.0297 48.6536 61.8296 48.577 61.6222 48.5773H61.6033H61.6046H61.5857C61.3778 48.577 61.1769 48.6528 61.0209 48.7903L61.0222 48.7897L61.0209 48.7891ZM58.4382 46.168C58.3609 46.2319 58.2986 46.3122 58.2559 46.403C58.2132 46.4938 58.1911 46.5929 58.1911 46.6932V48.1538C58.1911 48.3637 58.2867 48.5518 58.4376 48.6753L58.4388 48.6765C58.5946 48.8086 58.7973 48.8883 59.0188 48.8883C59.2403 48.8883 59.4436 48.808 59.6 48.6753L59.5987 48.6765C59.7521 48.5518 59.8489 48.3637 59.8489 48.1525V46.6956C59.8489 46.4845 59.7533 46.2964 59.6024 46.1711L59.6012 46.1705C59.4387 46.032 59.2321 45.9561 59.0187 45.9562C58.8052 45.9563 58.5987 46.0325 58.4364 46.1711L58.4376 46.1698L58.4382 46.168ZM61.4676 50.8546C61.4545 50.8441 61.444 50.8309 61.4367 50.8158C61.4294 50.8008 61.4257 50.7843 61.4256 50.7675V49.3088V49.3064C61.4256 49.2711 61.4421 49.24 61.467 49.22C61.4986 49.1926 61.539 49.1774 61.5808 49.1774H61.5887H61.5881H61.5954C61.6373 49.1773 61.6779 49.1922 61.7098 49.2194C61.7228 49.2297 61.7334 49.2428 61.7406 49.2578C61.7479 49.2728 61.7517 49.2891 61.7518 49.3058V50.7675C61.7518 50.7841 61.7481 50.8005 61.741 50.8155C61.7338 50.8304 61.7234 50.8436 61.7105 50.854C61.6776 50.8807 61.635 50.8966 61.5887 50.8966C61.5425 50.8966 61.4999 50.8807 61.4664 50.8533H61.467L61.4676 50.8546ZM58.8873 48.2341C58.8743 48.2236 58.8638 48.2104 58.8565 48.1953C58.8493 48.1803 58.8454 48.1638 58.8453 48.1471V46.6883V46.6865C58.8453 46.6512 58.8618 46.6202 58.8867 46.5995C58.9196 46.5727 58.9622 46.5569 59.0084 46.5569C59.0547 46.5569 59.0973 46.5727 59.1308 46.6001H59.1301C59.1432 46.6105 59.1538 46.6238 59.1611 46.6388C59.1683 46.6539 59.1721 46.6704 59.1721 46.6871V48.1483C59.1721 48.1649 59.1684 48.1814 59.1612 48.1964C59.1541 48.2115 59.1437 48.2248 59.1308 48.2353C59.0979 48.2621 59.0553 48.2779 59.009 48.2779C58.9628 48.2779 58.9202 48.2621 58.8867 48.2347H58.8873V48.2341Z" fill="#EA5400"/>
<path d="M46.4115 23.3849H53.5883V4.51572C53.5883 2.53389 51.9816 0.927246 49.9998 0.927246C48.018 0.927246 46.4113 2.53389 46.4113 4.51572V23.3849H46.4115Z" fill="#413D44"/>
<path d="M53.5879 30.9141V68.5019L50 71.2646L46.4121 68.5019V30.9141C46.4121 28.9316 48.0176 27.3262 50 27.3262C51.9824 27.3262 53.5879 28.9316 53.5879 30.9141Z" fill="#EAE6E1"/>
<path d="M51.6914 27.7498C51.1875 27.4801 50.6119 27.3262 50 27.3262C48.0176 27.3262 46.4121 28.9316 46.4121 30.9141V68.502L48.4822 70.0959L49.7951 68.502V30.9141C49.7949 29.5436 50.5627 28.3541 51.6914 27.7498Z" fill="#D8D4D0"/>
<path d="M5.21992 50.7205C7.32305 46.6842 11.5465 43.9275 16.4166 43.9275C21.2832 43.9275 25.5066 46.6842 27.61 50.7205C29.7131 46.6842 33.9365 43.9275 38.8066 43.9275C43.6732 43.9275 47.8967 46.6842 50 50.7205C52.1031 46.6842 56.3266 43.9275 61.1967 43.9275C66.0633 43.9275 70.2867 46.6842 72.39 50.7205C74.4931 46.6842 78.7166 43.9275 83.5867 43.9275C88.4533 43.9275 92.6767 46.6842 94.7801 50.7205C94.7801 25.9893 74.7314 5.94043 50 5.94043C25.2686 5.94043 5.21992 25.9891 5.21992 50.7205Z" fill="#FC5965"/>
<path d="M50 5.94043C43.7236 5.94043 38.5248 22.4486 37.6148 43.9828C33.2539 44.3918 29.54 47.0174 27.6102 50.7205C25.5072 46.684 21.2834 43.9269 16.418 43.9269C11.5471 43.9269 7.325 46.684 5.22031 50.7205C5.21992 25.9896 25.2691 5.94043 50 5.94043Z" fill="#E54559"/>
<path d="M82.9385 17.7815C74.1402 8.98325 62.4426 4.13794 50 4.13794C37.5574 4.13794 25.8598 8.98325 17.0615 17.7815C8.26328 26.5797 3.41797 38.2774 3.41797 50.72C3.41797 51.7151 4.2248 52.5219 5.21992 52.5219C6.21504 52.5219 7.02187 51.7151 7.02187 50.72C7.02187 39.2401 11.4924 28.4473 19.6098 20.3299C25.0416 14.8981 31.6723 11.1022 38.9043 9.18325C36.5643 11.4762 34.4219 14.5186 32.5563 18.2499C28.2045 26.953 25.808 38.4846 25.808 50.72C25.808 51.7153 26.6148 52.5219 27.61 52.5219C28.6051 52.5219 29.4119 51.7151 29.4119 50.72C29.4119 39.033 31.6734 28.0741 35.7795 19.8616C39.2387 12.9432 43.5934 8.77895 48.1978 7.91352V50.72C48.1978 51.7153 49.0047 52.5219 49.9998 52.5219C50.9949 52.5219 51.8018 51.7151 51.8018 50.72V7.91352C56.4062 8.77895 60.7609 12.943 64.2201 19.8616C68.3262 28.0741 70.5877 39.033 70.5877 50.72C70.5877 51.7153 71.3945 52.5219 72.3896 52.5219C73.3848 52.5219 74.1916 51.7151 74.1916 50.72C74.1916 38.4844 71.7951 26.953 67.4434 18.2499C65.5777 14.5186 63.4352 11.476 61.0953 9.18325C68.3273 11.1024 74.958 14.8983 80.3898 20.3299C88.5072 28.4473 92.9777 39.2401 92.9777 50.72C92.9777 51.7151 93.7846 52.5219 94.7797 52.5219C95.7748 52.5219 96.5816 51.7151 96.5816 50.72C96.582 38.2774 91.7367 26.5795 82.9385 17.7815Z" fill="#E54559"/>
<path d="M17.0609 17.7809C25.8584 8.98345 37.557 4.13794 50 4.13794C47.7475 4.13794 45.5852 6.13091 43.666 9.88267C40.7684 11.8883 38.0762 15.267 35.7785 19.8604C31.6734 28.0741 29.4119 39.0321 29.4119 50.7198C29.4119 51.7145 28.6047 52.5217 27.61 52.5217C26.6135 52.5217 25.808 51.7145 25.808 50.7198C25.808 38.484 28.2047 26.953 32.5564 18.2493C34.4215 14.5172 36.5641 11.4754 38.9031 9.18325C31.6717 11.1024 25.0402 14.8975 19.609 20.3288C11.4928 28.4467 7.02187 39.2391 7.02187 50.7198C7.02187 51.7145 6.21465 52.5217 5.21992 52.5217C4.22344 52.5217 3.41797 51.7145 3.41797 50.7198C3.41797 38.277 8.26348 26.5801 17.0609 17.7809Z" fill="#CE3A53"/>
<path d="M53.5879 68.5017V82.1228C53.5879 88.7419 48.2031 94.1287 41.584 94.1287C38.3789 94.1287 35.3633 92.8806 33.0938 90.615C31.2383 88.7615 30.0293 86.3181 29.6836 83.7341C29.4219 81.7693 30.8008 79.9646 32.7656 79.7009C34.7305 79.4392 36.5352 80.8201 36.7969 82.783C36.9356 83.8162 37.4219 84.7927 38.166 85.5369C39.0781 86.449 40.293 86.9509 41.584 86.9509C44.2461 86.9509 46.4121 84.7849 46.4121 82.1228V68.5017H53.5879Z" fill="#5A565E"/>
<path d="M44.9668 86.9509C47.6289 86.9509 49.7949 84.7849 49.7949 82.1228V68.5017H46.4121V82.1228C46.4121 84.1915 45.1039 85.9599 43.2715 86.6458C43.8067 86.8456 44.3787 86.9509 44.9668 86.9509Z" fill="#413D44"/>
<path d="M36.4766 90.6152C34.6211 88.7617 33.4121 86.3183 33.0664 83.7343C32.8633 82.2091 33.6512 80.7838 34.9318 80.0976C34.291 79.7539 33.5416 79.5978 32.7656 79.7011C30.8008 79.9648 29.4219 81.7695 29.6836 83.7343C30.0293 86.3183 31.2383 88.7617 33.0938 90.6152C35.3633 92.8808 38.3789 94.1289 41.584 94.1289C42.1553 94.1289 42.7166 94.0861 43.2668 94.0085C40.7061 93.6476 38.3397 92.4752 36.4766 90.6152Z" fill="#413D44"/>
<path d="M70.8768 84.8998C77.6612 84.8998 83.1611 79.3999 83.1611 72.6154C83.1611 65.831 77.6612 60.3311 70.8768 60.3311C64.0923 60.3311 58.5924 65.831 58.5924 72.6154C58.5924 79.3999 64.0923 84.8998 70.8768 84.8998Z" fill="#FFE04A"/>
<path d="M72.3424 84.8098C71.8619 84.8684 71.3736 84.8977 70.8775 84.8977C64.0924 84.8977 58.5924 79.3977 58.5924 72.6145C58.5924 65.8293 64.0924 60.3293 70.8775 60.3293C71.3736 60.3293 71.8619 60.3586 72.3424 60.4172C66.2467 61.1399 61.5221 66.3254 61.5221 72.6145C61.5221 78.9036 66.2467 84.0872 72.3424 84.8098Z" fill="#FFBF4D"/>
<path d="M70.8767 79.6609C74.7684 79.6609 77.9232 76.506 77.9232 72.6144C77.9232 68.7227 74.7684 65.5679 70.8767 65.5679C66.9851 65.5679 63.8303 68.7227 63.8303 72.6144C63.8303 76.506 66.9851 79.6609 70.8767 79.6609Z" fill="#FFBF4D"/>
<ellipse cx="72.2378" cy="73.361" rx="6.88202" ry="6.88202" fill="white"/>
<path fill-rule="evenodd" clip-rule="evenodd" d="M79.7753 73.0334C79.7753 77.3769 76.2536 80.8985 71.9101 80.8985C67.5666 80.8985 64.0449 77.3769 64.0449 73.0334C64.0449 68.6898 67.5666 65.1682 71.9101 65.1682C76.2536 65.1682 79.7753 68.6898 79.7753 73.0334ZM72.1919 70.9747C71.427 71.2926 69.8979 71.9513 67.6052 72.9501C67.2329 73.0983 67.0376 73.2431 67.0199 73.3847C66.9898 73.6246 67.29 73.719 67.6976 73.8468C67.7533 73.8645 67.811 73.8822 67.87 73.9018C68.2718 74.0323 68.8119 74.185 69.0924 74.1909C69.3474 74.1961 69.6318 74.0912 69.9458 73.8763C72.0877 72.4297 73.1934 71.6989 73.2629 71.6832C73.3121 71.672 73.3802 71.6576 73.4261 71.6989C73.472 71.7396 73.4674 71.8169 73.4628 71.8379C73.4327 71.9644 72.2568 73.0583 71.6473 73.6246C71.4572 73.8009 71.3228 73.9261 71.2953 73.9549C71.2337 74.0185 71.1708 74.0794 71.1105 74.1378C70.7369 74.497 70.4577 74.767 71.1262 75.2074C71.438 75.413 71.6893 75.5839 71.9382 75.7533C71.9456 75.7583 71.9531 75.7634 71.9606 75.7685C72.2404 75.9592 72.5196 76.1493 72.8814 76.3866C72.9732 76.4469 73.061 76.5091 73.1469 76.5701C73.4726 76.8028 73.7656 77.0112 74.1274 76.9784C74.3372 76.9588 74.5548 76.7615 74.6649 76.1722C74.9251 74.7788 75.4376 71.7612 75.5563 70.5172C75.5635 70.4139 75.5591 70.3101 75.5431 70.2078C75.5336 70.1252 75.4934 70.0492 75.4304 69.9948C75.3367 69.9181 75.1912 69.9017 75.1256 69.903C74.83 69.9083 74.3765 70.0662 72.1919 70.9747Z" fill="#5584B6"/>
</svg>
