<svg width="30" height="33" fill="none" xmlns="http://www.w3.org/2000/svg"><path d="M3.571 3.402h23.215v20.037l-11.921 8.54L3.57 23.44V3.402z" fill="#fff"/><path fill-rule="evenodd" clip-rule="evenodd" d="M26.071 4.082H4.286V23.11l10.59 8.01 11.195-8.02V4.081zm.715 19.357l-11.921 8.54L3.57 23.44V3.402h23.215v20.037z" fill="#111"/><path d="M7.857 3.402H22.5v18.34l-7.52 5.474-7.123-5.474V3.402z" fill="#EA5400"/><path fill-rule="evenodd" clip-rule="evenodd" d="M22.143 3.742H8.214V21.58l6.773 5.205 7.156-5.21V3.741zm.357 18l-7.52 5.474-7.123-5.474V3.402H22.5v18.34z" fill="#111"/><path d="M0 1.02C0 .458.48 0 1.071 0H28.93C29.52 0 30 .457 30 1.02v2.042c0 .564-.48 1.02-1.071 1.02H1.07C.48 4.082 0 3.626 0 3.062V1.02z" fill="#111"/><path d="M14.286 6.804h1.51v7.485h-1.51V6.804z" fill="#fff"/><path fill-rule="evenodd" clip-rule="evenodd" d="M7.892 17.079a.184.184 0 01.25-.035l6.862 4.86 7.217-4.694a.184.184 0 01.248.044.165.165 0 01-.047.237l-7.321 4.763a.186.186 0 01-.208-.004L7.93 17.317a.165.165 0 01-.037-.238z" fill="#111"/></svg>