<svg width="30" height="33" fill="none" xmlns="http://www.w3.org/2000/svg"><path d="M3.571 3.402h23.215v20.037l-11.921 8.54L3.57 23.44V3.402z" fill="#fff"/><path fill-rule="evenodd" clip-rule="evenodd" d="M26.071 4.082H4.286V23.11l10.59 8.01 11.195-8.02V4.081zm.715 19.357l-11.921 8.54L3.57 23.44V3.402h23.215v20.037z" fill="#111"/><path d="M7.857 3.402H22.5v18.34l-7.52 5.474-7.123-5.474V3.402z" fill="#EA5400"/><path fill-rule="evenodd" clip-rule="evenodd" d="M7.892 18.1a.184.184 0 01.25-.036l6.862 4.861 7.217-4.695a.184.184 0 01.248.045.165.165 0 01-.047.236l-7.321 4.763a.186.186 0 01-.208-.004L7.93 18.337a.165.165 0 01-.037-.238z" fill="#fff"/><path fill-rule="evenodd" clip-rule="evenodd" d="M7.892 16.909a.185.185 0 01.25-.035l6.862 4.86 7.217-4.694a.184.184 0 01.248.045.165.165 0 01-.047.236l-7.321 4.763a.186.186 0 01-.208-.004L7.93 17.147a.165.165 0 01-.037-.238z" fill="#fff"/><path fill-rule="evenodd" clip-rule="evenodd" d="M7.892 15.718a.185.185 0 01.25-.035l6.862 4.86 7.217-4.694a.184.184 0 01.248.045.165.165 0 01-.047.236l-7.321 4.763a.186.186 0 01-.208-.004L7.93 15.956a.165.165 0 01-.037-.238z" fill="#fff"/><path fill-rule="evenodd" clip-rule="evenodd" d="M7.892 19.29a.184.184 0 01.25-.035l6.862 4.86 7.217-4.694a.184.184 0 01.248.045.165.165 0 01-.047.236l-7.321 4.763a.186.186 0 01-.208-.004L7.93 19.528a.165.165 0 01-.037-.238z" fill="#fff"/><path fill-rule="evenodd" clip-rule="evenodd" d="M7.892 20.31a.184.184 0 01.25-.034l6.862 4.86 7.217-4.694a.184.184 0 01.248.044.165.165 0 01-.047.237l-7.321 4.763a.186.186 0 01-.208-.004L7.93 20.549a.165.165 0 01-.037-.238z" fill="#111"/><path fill-rule="evenodd" clip-rule="evenodd" d="M22.143 3.742H8.214V21.58l6.773 5.205 7.156-5.21V3.741zm.357 18l-7.52 5.474-7.123-5.474V3.402H22.5v18.34z" fill="#111"/><path d="M10.714 6.804h1.429v7.485h-1.429V6.804zm8.846 7.116c.08.091.102.175.066.253-.03.077-.11.116-.243.116h-.771c-.228 0-.386-.018-.474-.053-.088-.035-.177-.123-.265-.264l-1.686-2.477-1.62 2.478c-.103.14-.195.228-.276.263-.08.035-.231.053-.451.053h-.717c-.14 0-.224-.035-.253-.106-.03-.077-.008-.165.066-.263l2.425-3.447-2.337-3.331c-.073-.085-.095-.162-.066-.232.037-.07.121-.106.253-.106h.739c.22 0 .37.018.452.053.08.035.172.116.275.242l1.576 2.33L17.83 7.1c.103-.126.191-.207.265-.242.08-.035.224-.053.43-.053h.76c.125 0 .202.035.231.106.037.07.019.147-.055.232l-2.358 3.32 2.457 3.458z" fill="#fff"/><path d="M0 1.02C0 .458.48 0 1.071 0H28.93C29.52 0 30 .457 30 1.02v2.042c0 .564-.48 1.02-1.071 1.02H1.07C.48 4.082 0 3.626 0 3.062V1.02z" fill="#111"/></svg>