<svg width="16" height="22" fill="none" xmlns="http://www.w3.org/2000/svg"><path d="M14.592 8.817H4.704V5.63c0-1.648 1.099-3.076 2.637-3.406 2.087-.33 3.955 1.209 3.955 3.296a1.1 1.1 0 001.099 1.099 1.1 1.1 0 001.098-1.1c0-3.185-2.747-5.822-6.042-5.492-2.857.33-4.944 2.856-4.944 5.713v3.076H1.408A1.1 1.1 0 00.31 9.915v10.986C.31 21.451.86 22 1.408 22h13.184a1.1 1.1 0 001.098-1.099V9.915c0-.659-.44-1.098-1.098-1.098zm-5.493 7.36v1.429c0 .659-.44 1.098-1.099 1.098-.66 0-1.099-.44-1.099-1.098v-1.429c-.659-.44-1.098-1.098-1.098-1.867 0-1.428 1.318-2.417 2.746-2.088.77.22 1.429.88 1.648 1.648.22.99-.33 1.868-1.098 2.307z" fill="#128F77"/></svg>