<svg width="22" height="22" fill="none" xmlns="http://www.w3.org/2000/svg"><circle cx="11.458" cy="11.459" r="9.625" fill="#fff"/><path fill-rule="evenodd" clip-rule="evenodd" d="M22 11c0 6.075-4.925 11-11 11S0 17.075 0 11 4.925 0 11 0s11 4.925 11 11zM11.394 8.12c-1.07.445-3.208 1.367-6.415 2.764-.52.207-.793.41-.818.607-.042.336.377.468.948.647l.24.077c.563.182 1.318.396 1.71.404.357.007.755-.14 1.194-.44 2.995-2.023 4.542-3.045 4.639-3.067.069-.016.164-.036.228.022.064.056.058.165.052.194-.043.177-1.687 1.707-2.54 2.499-.265.246-.453.421-.492.462-.086.089-.174.174-.258.256-.523.502-.913.88.022 1.496.436.287.787.526 1.135.763l.032.021c.391.267.781.533 1.287.865.129.084.252.171.372.256.455.326.865.617 1.371.571.293-.027.598-.303.752-1.127.364-1.949 1.08-6.17 1.246-7.91.01-.144.004-.289-.018-.432a.464.464 0 00-.158-.298c-.13-.107-.334-.13-.426-.128-.413.007-1.048.228-4.103 1.499z" fill="#5584B6"/></svg>